<svg xmlns="http://www.w3.org/2000/svg" width="114" height="312" viewBox="1724 712 114 312"><polygon points="1755,713 1799,713 1837,749 1837,987 1800,1023 1755,1023 1725,989 1725,749" fill="#263d51" stroke="#3c5b66" stroke-width="2"/><text x="1780" y="739" font-family="Arial, sans-serif" font-size="17" fill="#dbe4dc" text-anchor="middle">FUEL</text><rect x="1761" y="766" width="21" height="216" rx="1" fill="#0c2337" stroke="#748a97" stroke-width="1.3"/><path d="M1750,779 L1759,779" fill="none" stroke="#c8dbe5" stroke-width="1"/><path d="M1784,779 L1796,779" fill="none" stroke="#c8dbe5" stroke-width="1"/><text x="1744" y="782" font-family="Arial, sans-serif" font-size="9" fill="#cfdee0" text-anchor="end">10</text><path d="M1750,798 L1759,798" fill="none" stroke="#c8dbe5" stroke-width="1"/><path d="M1784,798 L1796,798" fill="none" stroke="#c8dbe5" stroke-width="1"/><text x="1744" y="801" font-family="Arial, sans-serif" font-size="9" fill="#cfdee0" text-anchor="end">9</text><path d="M1750,817 L1759,817" fill="none" stroke="#c8dbe5" stroke-width="1"/><path d="M1784,817 L1796,817" fill="none" stroke="#c8dbe5" stroke-width="1"/><text x="1744" y="820" font-family="Arial, sans-serif" font-size="9" fill="#cfdee0" text-anchor="end">8</text><path d="M1750,836 L1759,836" fill="none" stroke="#c8dbe5" stroke-width="1"/><path d="M1784,836 L1796,836" fill="none" stroke="#c8dbe5" stroke-width="1"/><text x="1744" y="839" font-family="Arial, sans-serif" font-size="9" fill="#cfdee0" text-anchor="end">7</text><path d="M1750,855 L1759,855" fill="none" stroke="#c8dbe5" stroke-width="1"/><path d="M1784,855 L1796,855" fill="none" stroke="#c8dbe5" stroke-width="1"/><text x="1744" y="858" font-family="Arial, sans-serif" font-size="9" fill="#cfdee0" text-anchor="end">6</text><path d="M1750,874 L1759,874" fill="none" stroke="#c8dbe5" stroke-width="1"/><path d="M1784,874 L1796,874" fill="none" stroke="#c8dbe5" stroke-width="1"/><text x="1744" y="877" font-family="Arial, sans-serif" font-size="9" fill="#cfdee0" text-anchor="end">5</text><path d="M1750,893 L1759,893" fill="none" stroke="#c8dbe5" stroke-width="1"/><path d="M1784,893 L1796,893" fill="none" stroke="#c8dbe5" stroke-width="1"/><text x="1744" y="896" font-family="Arial, sans-serif" font-size="9" fill="#cfdee0" text-anchor="end">4</text><path d="M1750,912 L1759,912" fill="none" stroke="#c8dbe5" stroke-width="1"/><path d="M1784,912 L1796,912" fill="none" stroke="#c8dbe5" stroke-width="1"/><text x="1744" y="915" font-family="Arial, sans-serif" font-size="9" fill="#cfdee0" text-anchor="end">3</text><path d="M1750,931 L1759,931" fill="none" stroke="#c8dbe5" stroke-width="1"/><path d="M1784,931 L1796,931" fill="none" stroke="#c8dbe5" stroke-width="1"/><text x="1744" y="934" font-family="Arial, sans-serif" font-size="9" fill="#cfdee0" text-anchor="end">2</text><path d="M1750,950 L1759,950" fill="none" stroke="#c8dbe5" stroke-width="1"/><path d="M1784,950 L1796,950" fill="none" stroke="#c8dbe5" stroke-width="1"/><text x="1744" y="953" font-family="Arial, sans-serif" font-size="9" fill="#cfdee0" text-anchor="end">1</text><path d="M1750,969 L1759,969" fill="none" stroke="#c8dbe5" stroke-width="1"/><path d="M1784,969 L1796,969" fill="none" stroke="#c8dbe5" stroke-width="1"/><text x="1744" y="972" font-family="Arial, sans-serif" font-size="9" fill="#cfdee0" text-anchor="end">0</text><rect x="1766" y="824" width="11" height="151" rx="0" fill="#a7c0ce" stroke="none" stroke-width="1.3"/><text x="1780" y="1008" font-family="Arial, sans-serif" font-size="10" fill="#dbe4dc" text-anchor="middle">x1000 kg</text></svg>