<?xml version="1.0" encoding="utf-8"?>
<!-- Generator: Adobe Illustrator 23.0.6, SVG Export Plug-In . SVG Version: 6.00 Build 0)  -->
<svg version="1.1" id="Слой_1" xmlns:ffdec="https://www.free-decompiler.com/flash"
	 xmlns="http://www.w3.org/2000/svg" xmlns:xlink="http://www.w3.org/1999/xlink" x="0px" y="0px" viewBox="0 0 157.7 306"
	 style="enable-background:new 0 0 157.7 306;" xml:space="preserve">
<style type="text/css">
	.st0{fill-rule:evenodd;clip-rule:evenodd;}
	.st1{fill-rule:evenodd;clip-rule:evenodd;fill:url(#SVGID_1_);}
	.st2{fill-rule:evenodd;clip-rule:evenodd;fill:#EDECDE;}
	.st3{fill-rule:evenodd;clip-rule:evenodd;fill:url(#SVGID_2_);}
	.st4{fill-rule:evenodd;clip-rule:evenodd;fill:#E9E7DA;}
	.st5{fill-rule:evenodd;clip-rule:evenodd;fill:url(#SVGID_3_);}
	.st6{fill-rule:evenodd;clip-rule:evenodd;fill:url(#SVGID_4_);}
	.st7{fill-rule:evenodd;clip-rule:evenodd;fill:#555555;}
	.st8{fill-rule:evenodd;clip-rule:evenodd;fill:url(#SVGID_5_);}
	.st9{display:none;}
	.st10{display:inline;fill-rule:evenodd;clip-rule:evenodd;fill:#2F2F2F;}
	.st11{display:inline;fill-rule:evenodd;clip-rule:evenodd;fill:#666666;}
	.st12{display:inline;fill-rule:evenodd;clip-rule:evenodd;}
	.st13{display:inline;fill-rule:evenodd;clip-rule:evenodd;fill:#444444;}
	.st14{display:inline;fill-rule:evenodd;clip-rule:evenodd;fill:#333333;}
	.st15{display:inline;fill-rule:evenodd;clip-rule:evenodd;fill:#151515;}
	.st16{display:inline;fill-rule:evenodd;clip-rule:evenodd;fill:url(#SVGID_6_);}
	.st17{display:inline;fill-rule:evenodd;clip-rule:evenodd;fill:#EDECDE;}
	.st18{display:inline;fill-rule:evenodd;clip-rule:evenodd;fill:url(#SVGID_7_);}
	.st19{display:inline;fill-rule:evenodd;clip-rule:evenodd;fill:#E9E7DA;}
	.st20{display:inline;fill-rule:evenodd;clip-rule:evenodd;fill:url(#SVGID_8_);}
	.st21{display:inline;fill-rule:evenodd;clip-rule:evenodd;fill:url(#SVGID_9_);}
	.st22{display:inline;fill-rule:evenodd;clip-rule:evenodd;fill:url(#SVGID_10_);}
	.st23{display:inline;fill-rule:evenodd;clip-rule:evenodd;fill:#FFFFFF;}
	.st24{display:inline;fill-rule:evenodd;clip-rule:evenodd;fill:#875F23;}
	.st25{fill-rule:evenodd;clip-rule:evenodd;fill:url(#SVGID_11_);}
	.st26{fill:none;stroke:#444444;stroke-width:4;stroke-linecap:round;stroke-linejoin:round;}
	.st27{display:inline;fill-rule:evenodd;clip-rule:evenodd;fill:url(#SVGID_12_);}
	.st28{display:inline;fill:none;stroke:#444444;stroke-width:4;stroke-linecap:round;stroke-linejoin:round;}
	.st29{fill-rule:evenodd;clip-rule:evenodd;fill:#666666;}
	.st30{fill-rule:evenodd;clip-rule:evenodd;fill:#2F2F2F;}
	.st31{fill-rule:evenodd;clip-rule:evenodd;fill:#2B2B2B;}
	.st32{display:inline;fill-rule:evenodd;clip-rule:evenodd;fill:#1E1E1E;}
	.st33{display:inline;fill-rule:evenodd;clip-rule:evenodd;fill:#262626;}
	.st34{fill-rule:evenodd;clip-rule:evenodd;fill:#FF3300;}
	.st35{fill-rule:evenodd;clip-rule:evenodd;fill:url(#SVGID_13_);}
	.st36{fill-rule:evenodd;clip-rule:evenodd;fill:url(#SVGID_14_);}
	.st37{fill-rule:evenodd;clip-rule:evenodd;fill:url(#SVGID_15_);}
	.st38{fill-rule:evenodd;clip-rule:evenodd;fill:url(#SVGID_16_);}
</style>
<g transform="matrix(1.0, 0.0, 0.0, 1.0, 39.45, 70.5)">
	<path class="st0" d="M39.3,120.2c-5.1,0-9.4-1.8-13-5.4c-3.6-3.6-5.5-7.9-5.5-13c0-5.1,1.8-9.4,5.5-13c3.6-3.6,7.9-5.4,13-5.4
		c5.1,0,9.5,1.8,13,5.4c3.6,3.6,5.4,7.9,5.4,13c0,5.1-1.8,9.4-5.4,13C48.8,118.4,44.4,120.2,39.3,120.2"/>
	
		<linearGradient id="SVGID_1_" gradientUnits="userSpaceOnUse" x1="113413.1797" y1="-114599.2813" x2="115051.5781" y2="-114599.2813" gradientTransform="matrix(0 -1.090000e-02 -1.020000e-02 0 -1129.4615 1347.2292)">
		<stop  offset="0" style="stop-color:#9B927D"/>
		<stop  offset="0.5333" style="stop-color:#D5CFC4"/>
		<stop  offset="1" style="stop-color:#9D967B"/>
	</linearGradient>
	<path class="st1" d="M16.9,110.4V93.7h45.2v16.8H16.9"/>
	<path class="st2" d="M67.3,129.9c-7.7,7.7-17,11.6-27.9,11.6s-20.2-3.9-27.9-11.6s-11.5-17-11.5-27.9s3.9-20.2,11.6-27.9
		s17-11.5,27.9-11.5s20.2,3.8,27.9,11.6s11.6,17,11.6,27.9S75,122.2,67.3,129.9 M64.4,76.9C57.5,70,49.1,66.5,39.3,66.5
		S21.1,70,14.2,76.9S3.8,92.2,3.8,102s3.5,18.1,10.4,25c6.9,6.9,15.3,10.4,25.1,10.4S57.5,134,64.4,127c6.9-6.9,10.4-15.3,10.4-25.1
		S71.3,83.8,64.4,76.9"/>
	
		<radialGradient id="SVGID_2_" cx="37414.7891" cy="41417.9336" r="819.2" gradientTransform="matrix(3.020000e-02 0 0 -3.020000e-02 -1090.4756 1344.5179)" gradientUnits="userSpaceOnUse">
		<stop  offset="0" style="stop-color:#F5F3EF"/>
		<stop  offset="1" style="stop-color:#776C5E"/>
	</radialGradient>
	<path class="st3" d="M56.3,118.9c-4.7,4.7-10.3,7-16.9,7c-6.6,0-12.2-2.3-16.9-7s-7-10.3-7-16.9c0-6.6,2.3-12.2,7-16.8
		c4.7-4.6,10.3-7,16.9-7c6.6,0,12.2,2.3,16.9,7c4.7,4.7,7,10.3,7,16.8C63.3,108.6,61,114.3,56.3,118.9 M51,113.4
		c3.2-3.2,4.8-7,4.8-11.5c0-4.5-1.6-8.4-4.8-11.6c-3.2-3.2-7-4.8-11.5-4.8c-4.5,0-8.4,1.6-11.6,4.8c-3.2,3.2-4.8,7-4.8,11.6
		c0,4.5,1.6,8.3,4.8,11.5c3.2,3.2,7,4.8,11.5,4.8C43.9,118.2,47.8,116.6,51,113.4"/>
	<path class="st4" d="M56.3,118.9c4.7-4.7,7-10.3,7-16.9c0-6.6-2.3-12.2-7-16.8c-4.7-4.6-10.3-7-16.9-7c-6.6,0-12.2,2.3-16.9,7
		c-4.7,4.7-7,10.3-7,16.8c0,6.6,2.3,12.2,7,16.9c4.7,4.7,10.3,7,16.9,7C46,125.9,51.6,123.6,56.3,118.9 M60.4,80.9
		c5.8,5.8,8.8,12.8,8.8,21s-2.9,15.3-8.8,21.1c-5.8,5.8-12.9,8.7-21.1,8.7s-15.3-2.9-21.1-8.7c-5.8-5.8-8.7-12.9-8.7-21.1
		s2.9-15.2,8.7-21s12.9-8.7,21.1-8.7S54.6,75.1,60.4,80.9"/>
	
		<radialGradient id="SVGID_3_" cx="15895.9336" cy="18202.9414" r="819.2" gradientTransform="matrix(6.820000e-02 0 0 -6.820000e-02 -1026.0015 1351.3868)" gradientUnits="userSpaceOnUse">
		<stop  offset="0" style="stop-color:#DAD7BE"/>
		<stop  offset="1" style="stop-color:#ABA46D"/>
	</radialGradient>
	<path class="st5" d="M60.4,80.9c-5.8-5.8-12.9-8.7-21.1-8.7S24,75.1,18.2,80.9c-5.8,5.8-8.7,12.8-8.7,21s2.9,15.3,8.7,21.1
		c5.8,5.8,12.9,8.8,21.1,8.8s15.3-2.9,21.1-8.8c5.8-5.8,8.8-12.9,8.8-21.1S66.2,86.7,60.4,80.9 M64.4,76.9
		c6.9,6.9,10.4,15.3,10.4,25.1s-3.5,18.1-10.4,25c-6.9,6.9-15.3,10.4-25.1,10.4S21.1,134,14.2,127C7.3,120.1,3.8,111.8,3.8,102
		s3.5-18.2,10.4-25.1s15.3-10.4,25.1-10.4S57.5,70,64.4,76.9"/>
	
		<radialGradient id="SVGID_4_" cx="70348.9844" cy="76948.0469" r="819.2" gradientTransform="matrix(1.630000e-02 0 0 -1.630000e-02 -1107.2875 1364.6995)" gradientUnits="userSpaceOnUse">
		<stop  offset="0" style="stop-color:#DAD7BE"/>
		<stop  offset="1" style="stop-color:#9B927D"/>
	</radialGradient>
	<path class="st6" d="M39.3,114.7c-3.5,0-6.5-1.3-9-3.8c-2.5-2.5-3.7-5.5-3.7-9s1.2-6.5,3.7-9c2.5-2.5,5.5-3.7,9-3.7
		s6.5,1.2,8.9,3.7c2.5,2.5,3.8,5.5,3.8,9s-1.3,6.5-3.8,9C45.7,113.4,42.8,114.7,39.3,114.7"/>
</g>
<g transform="matrix(1.0, 0.0, 0.0, 1.0, 52.65, 85.3)">
	<path class="st7" d="M27.9-32.6c14.6,0,27,3.5,37.3,10.4c3.8,2.6,6.9,5.3,9.3,8.3c4.2,5.1,6.3,10.8,6.3,17.1v127.8
		c0,6.5-2.3,12.4-6.8,17.7c-2.3,2.7-5.3,5.2-8.8,7.6c-10.3,7-22.8,10.5-37.3,10.5c-14.6,0-27.1-3.5-37.6-10.5
		c-3.5-2.4-6.4-4.9-8.7-7.6c-4.5-5.3-6.8-11.2-6.8-17.7V3.2c0-9.9,5.2-18.3,15.5-25.3C0.8-29.1,13.3-32.6,27.9-32.6 M49.6,1.6
		c-6-5.1-13.3-7.7-21.9-7.7c-8.5,0-15.9,2.5-22,7.7c-5.9,5-8.9,10.9-9.1,17.9l0,28.9c-2.7,5-4.1,10.6-4.1,16.7v40.1
		c0,9.8,3.5,18.1,10.4,25l0.6,0.5l0.4,0.4l0.9,0.8l3.1,2.5c2.2,1.6,4.6,2.8,7.1,3.8l3,1c3.2,0.9,6.5,1.4,10,1.4
		c9.8,0,18.1-3.5,25-10.5c7-6.9,10.5-15.2,10.5-25V65c0-6.5-1.6-12.4-4.7-17.7V19.4C58.6,12.5,55.5,6.6,49.6,1.6"/>
	<path class="st7" d="M73-14.8l0.9,39.7h0.6v113.7c0,3.5-0.4,6.9-1.2,10.1c-1.9,7.6-6.1,14.3-12.5,20.3
		c-9.1,8.4-20.2,12.6-33.1,12.6s-24-4.2-33.2-12.6c-6.4-5.9-10.6-12.7-12.5-20.3c-0.8-3.2-1.2-6.6-1.2-10.1V24.8h0.6l0.9-39.7
		c0.8-2.9,1.9-5.7,3.4-8.3c2-3.7,4.7-7.1,8-10.3l0.8-0.8c9.2-8.4,20.3-12.6,33.2-12.6s24,4.2,33.1,12.6l0.8,0.8
		c3,2.9,5.4,5.9,7.4,9.2l0.7,1.1C71-20.5,72.2-17.7,73-14.8 M53,38.9C46.1,32,37.7,28.6,28,28.6c-9.7,0-18.1,3.5-25.1,10.3
		c-6.9,7-10.4,15.4-10.4,25.2v40.1c0,9.8,3.5,18.1,10.4,25l0.6,0.6l0.4,0.4l0.9,0.8l0.9,0.8l2.2,1.7c2.2,1.6,4.6,2.8,7.1,3.9l3,1
		c3.2,0.9,6.5,1.4,10,1.4c9.8,0,18.1-3.5,25-10.5c7-6.9,10.5-15.2,10.5-25V64.1C63.5,54.3,60,45.9,53,38.9"/>
</g>
<radialGradient id="SVGID_5_" cx="77640.625" cy="25874.916" r="819.2" fx="77858.2266" fy="25874.916" gradientTransform="matrix(1.480000e-02 0 0 -4.830000e-02 -1056.7301 1465.6547)" gradientUnits="userSpaceOnUse">
	<stop  offset="0" style="stop-color:#F2F2F2"/>
	<stop  offset="1" style="stop-color:#6A6A6A"/>
</radialGradient>
<path class="st8" d="M93.5,226.8l0.1,1.9c0,3.9-1.4,7.3-4.2,10.1c-2.8,2.8-6.2,4.2-10.2,4.2c-3.9,0-7.3-1.4-10.2-4.2
	c-2.8-2.8-4.2-6.2-4.2-10.1v-0.4v-2.8l6.3-54.4c0.1-1.1,0.8-2.2,2.1-3.3c1.3-1.1,2.8-1.9,4.5-2.4c1.7-0.5,3.6,0,5.8,1.6
	c2.2,1.6,3.4,3,3.5,4.1l6.3,54.4L93.5,226.8"/>
<g transform="matrix(1.0, 0.0, 0.0, 1.0, 63.0, 287.85)" class="st9">
	<path class="st10" d="M68.7-236l1.4-0.1h0.1l1.4,0.1v136.5L71-99c-1.7,1.3-3.3,1.7-4.8,1.1l-0.4-0.3c-1.6-1.1-2.6-3.3-2.9-6.7
		l-6.8-78.7c-1-12.4-0.3-24,2.4-34.9C61.2-228.9,64.6-234.8,68.7-236 M63.9-186.4c0.8,0,1.4-1.4,2-4.3c0.5-2.8,0.8-6.1,0.8-10
		c0-4-0.3-7.3-0.8-10.1s-1.2-4.1-2-4.1c-0.7,0-1.4,1.4-2,4.1c-0.5,2.8-0.8,6.1-0.8,10c0,4,0.3,7.3,0.8,10.1
		C62.5-187.8,63.2-186.4,63.9-186.4 M-29.8-236.1l1.5-0.1h0.1l1.4,0.1v136.4l-0.6,0.6c-1.7,1.3-3.3,1.7-4.8,1.1l-0.4-0.2
		c-1.6-1.1-2.6-3.3-2.9-6.7l-6.8-78.6c-1-12.4-0.3-24,2.4-34.9C-37.3-229-33.9-234.9-29.8-236.1 M-32.4-210.7
		c-0.5-2.8-1.2-4.2-2-4.2c-0.7,0-1.4,1.4-2,4.2c-0.5,2.8-0.8,6.1-0.8,10c0,4,0.3,7.3,0.8,10.1c0.6,2.8,1.2,4.3,2,4.3
		c0.8,0,1.4-1.4,2-4.3c0.5-2.8,0.8-6.1,0.8-10C-31.6-204.5-31.9-207.9-32.4-210.7"/>
	<path class="st11" d="M66.3-97.9c-1.2,0.4-2.3,0.3-3.3-0.3c-1.6-1.1-2.6-3.3-2.9-6.7l-6.8-78.7c-1-12.4-0.3-24,2.3-34.9
		c3-11.9,6.8-17.8,11.6-17.8h0.1l1.3,0.1c-4.1,1.2-7.4,7.1-10.1,17.7c-2.6,10.9-3.4,22.5-2.4,34.9l6.8,78.7c0.3,3.4,1.3,5.6,2.9,6.7
		L66.3-97.9 M-32.2-98l-3.3-0.2c-1.6-1.1-2.6-3.3-2.9-6.7l-6.8-78.6c-1-12.4-0.3-24,2.3-34.9c3-11.9,6.8-17.9,11.5-17.9h0.1l1.3,0.1
		c-4.1,1.2-7.4,7.1-10.1,17.7c-2.6,10.9-3.4,22.5-2.4,34.9l6.8,78.6c0.3,3.4,1.3,5.6,2.9,6.7L-32.2-98"/>
	<path class="st12" d="M63.9-186.4c-0.7,0-1.4-1.4-2-4.3c-0.5-2.8-0.8-6.1-0.8-10.1c0-3.9,0.3-7.2,0.8-10c0.6-2.8,1.2-4.1,2-4.1
		c0.8,0,1.4,1.4,2,4.1s0.8,6.1,0.8,10.1c0,3.9-0.3,7.2-0.8,10C65.3-187.8,64.7-186.4,63.9-186.4 M-32.4-210.7
		c0.5,2.8,0.8,6.1,0.8,10.1c0,3.9-0.3,7.2-0.8,10c-0.5,2.8-1.2,4.3-2,4.3c-0.7,0-1.4-1.4-2-4.3c-0.5-2.8-0.8-6.1-0.8-10.1
		c0-3.9,0.3-7.2,0.8-10c0.6-2.8,1.2-4.2,2-4.2C-33.6-214.8-32.9-213.4-32.4-210.7"/>
	<path class="st13" d="M88-460.5c3.9,4.5,5.7,9.7,5.3,15.8v139.4c-8,35.3-16.2,70.5-24.5,105.7c-1.6,6.8-5.4,12-11.4,15.6
		c-5.7,3.5-11.9,5.2-18.8,5.1c-0.4-9.8-5.5-16.4-15-19.6c-9.7-3.3-18.5-1.9-26.5,4.3l-1.7,1.5c-3.6,3.5-5.4,7.8-5.5,12.9
		c-3.3,1.4-7.5,1.7-12.5,0.8c-6.4-1.3-10.6-4.9-12.8-10.8c-1.4-4-1.8-8.2-1.3-12.4c8.3-69.3,16.4-138.6,24.1-207.9L-26.2-381
		l-9.7-4.5v-33.1h6.2l-11.9-1.9l10.5-7.6c10.1-9.3,16.8-18.5,20.2-27.4l0.8-2.2c6.7-7.4,15.1-11,25.3-10.8
		c17.9,0.4,35.8,0.6,53.7,0.6c6.4,0,12.2,2,17.3,5.8L88-460.5"/>
	<path class="st14" d="M70.2-416.5v212.9c0.6,12.5-4.7,21-15.9,25.5c-3.9,1.5-7.8,2.3-12,2.3h-1.7c-0.6-5.4-2.9-10.1-6.9-14.2
		c-4.8-4.8-10.5-7.2-17.3-7.2l-1.7,0.1h-0.5h-0.7l-1.1-0.1c-6.5,0.1-12,2.5-16.7,7.2c-4.1,4.1-6.5,8.9-7.1,14.6l-3.1-0.4
		c-4,0-7.8-0.8-11.6-2.3c-11.2-4.5-16.5-13-15.9-25.5v-212.9l0.1-5.4H70.1L70.2-416.5"/>
	<path class="st11" d="M51.2-214.1h2.9c-1.3,8.4-1.5,17.3-0.8,26.6l1.1,13.1h-2.8l-1.2-13.1C49.7-196.8,49.9-205.6,51.2-214.1
		 M59-232.5v-4.8c1.6-2,3.4-3,5.4-3h0.1l1.3,0.2C63.2-239.4,61-236.8,59-232.5 M57.8-171.1l1.8,20.4h0.3l3.5,41.8
		c0.3,3.4,1.3,5.6,2.9,6.6l0.4,0.3c-1.2,0.4-2.3,0.3-3.3-0.3c-1.6-1.1-2.6-3.3-2.9-6.6l-3.3-38.5H57l-2-23.8H57.8"/>
	<path class="st10" d="M54.1-214.1h4.8c-0.4,2.6-0.7,5.7-0.7,9.2c0,4,0.3,7.3,0.8,10.1c0.6,2.8,1.2,4.3,1.9,4.3c0.8,0,1.4-1.4,2-4.3
		c0.5-2.8,0.8-6.1,0.8-10c0-4-0.3-7.3-0.8-10.1s-1.2-4.2-2-4.2c-0.7,0-1.4,1.4-1.9,4.2l-0.1,0.3v-17.9c2-4.4,4.2-6.9,6.8-7.6
		l1.4-0.2h0.1l1.4,0.2v65.7H54.5l-1.1-13.1C52.5-196.8,52.8-205.6,54.1-214.1 M66.7-102l-0.4-0.3c-1.6-1.1-2.6-3.3-2.9-6.6
		l-3.5-41.8h-0.3l-1.8-20.4h14.3v67.4l-0.6,0.6C69.7-101.7,68.1-101.4,66.7-102"/>
	<path class="st12" d="M51.2-214.1h-80.1v-0.1h0V-421h0.1c15.1-11,24-23.6,26.7-37.8h75.6l0,0.1h0.1L59-420.7v183.5v4.8v17.9
		l0.1-0.3c0.6-2.8,1.2-4.2,1.9-4.2c0.8,0,1.4,1.4,2,4.2s0.8,6.1,0.8,10.1c0,3.9-0.3,7.2-0.8,10c-0.5,2.8-1.2,4.3-2,4.3
		c-0.7,0-1.4-1.4-1.9-4.3c-0.5-2.8-0.8-6.1-0.8-10.1c0-3.5,0.2-6.6,0.7-9.2h-4.8H51.2 M-2.1-458.7c-0.4,1.9-0.8,3.8-1.4,5.6
		c-3.8,11.9-12.2,22.6-25.3,32.1h-0.1v206.2l28.1-86.4h0.9v-157.5H-2.1"/>
	<path class="st15" d="M-2.1-458.7h2.2v157.5h-0.9l-28.1,86.4v-206.2h0.1c13-9.5,21.5-20.2,25.3-32.1
		C-2.9-454.9-2.5-456.8-2.1-458.7"/>
	<path class="st10" d="M68.9-240.1l1.5-0.2h0.1l1.4,0.2v139.8l-0.6,0.6c-1.8,1.4-3.5,1.8-5,1.2L66-98.8c-1.7-1.1-2.8-3.5-3.1-7
		l-3.8-43.8h-0.3l-3-35.2c-1.1-13-0.3-25.2,2.5-36.7l0.1-0.4C61.2-232.8,64.7-238.9,68.9-240.1 M66-213.6c-0.6-2.9-1.3-4.3-2.1-4.3
		c-0.8,0-1.5,1.4-2,4.3c-0.6,2.9-0.8,6.4-0.8,10.5c0,4.2,0.3,7.7,0.8,10.6c0.6,3,1.3,4.4,2,4.4c0.8,0,1.5-1.5,2.1-4.4
		c0.5-2.9,0.8-6.4,0.8-10.5C66.8-207.1,66.5-210.7,66-213.6"/>
	<path class="st11" d="M66.4-98.6c-1.2,0.5-2.4,0.4-3.4-0.3c-1.7-1.1-2.7-3.5-3-7l-3.4-40.3h-0.4l-3.3-38.7
		c-1.1-13-0.3-25.2,2.5-36.7c1-3.8,2-7,3.1-9.6c2.6-6.1,5.6-9.1,9-9.1h0.1l1.3,0.2c-4.2,1.2-7.7,7.3-10.5,18.2l-0.1,0.4
		c-2.7,11.5-3.5,23.7-2.5,36.7l3,35.2h0.3l3.8,43.8c0.3,3.5,1.3,5.9,3.1,7L66.4-98.6"/>
	<path class="st12" d="M66-213.6c0.5,2.9,0.8,6.4,0.8,10.6c0,4.1-0.3,7.6-0.8,10.5c-0.6,3-1.3,4.4-2.1,4.4c-0.8,0-1.5-1.5-2-4.4
		c-0.6-2.9-0.8-6.4-0.8-10.6c0-4.1,0.3-7.6,0.8-10.5c0.6-2.9,1.3-4.3,2-4.3C64.8-217.9,65.4-216.5,66-213.6"/>
</g>
<g transform="matrix(1.0, 0.0, 0.0, 1.0, 39.45, 70.5)" class="st9">
	<path class="st12" d="M38.7,79.4c5.1,0,9.5,1.8,13,5.4c3.6,3.6,5.4,7.9,5.4,13c0,5.1-1.8,9.4-5.4,13c-3.6,3.6-8,5.4-13,5.4
		c-5.1,0-9.4-1.8-13-5.4c-3.6-3.6-5.5-7.9-5.5-13c0-5.1,1.8-9.4,5.5-13C29.3,81.2,33.6,79.4,38.7,79.4"/>
	
		<linearGradient id="SVGID_6_" gradientUnits="userSpaceOnUse" x1="90887.75" y1="-114537.5547" x2="92526.1484" y2="-114537.5547" gradientTransform="matrix(0 1.090000e-02 -1.020000e-02 0 -1129.4615 -902.0661)">
		<stop  offset="0" style="stop-color:#9B927D"/>
		<stop  offset="0.5333" style="stop-color:#D5CFC4"/>
		<stop  offset="1" style="stop-color:#9D967B"/>
	</linearGradient>
	<path class="st16" d="M16.2,89.2h45.2v16.8H16.2V89.2"/>
	<path class="st17" d="M66.6,69.7c7.7,7.7,11.6,17,11.6,27.9s-3.8,20.2-11.6,27.9s-17,11.6-27.9,11.6s-20.2-3.9-27.9-11.6
		s-11.6-17-11.6-27.9s3.8-20.2,11.5-27.9s17-11.6,27.9-11.6S58.9,62,66.6,69.7 M63.8,122.7c6.9-6.9,10.4-15.3,10.4-25.1
		s-3.5-18.2-10.4-25c-6.9-6.9-15.3-10.4-25.1-10.4s-18.2,3.5-25.1,10.4C6.6,79.5,3.2,87.8,3.2,97.6s3.5,18.2,10.4,25.1
		c6.9,6.9,15.3,10.4,25.1,10.4S56.8,129.7,63.8,122.7"/>
	
		<radialGradient id="SVGID_7_" cx="37393.9414" cy="33287.8984" r="819.2" gradientTransform="matrix(3.020000e-02 0 0 3.020000e-02 -1090.4756 -899.3548)" gradientUnits="userSpaceOnUse">
		<stop  offset="0" style="stop-color:#F5F3EF"/>
		<stop  offset="1" style="stop-color:#776C5E"/>
	</radialGradient>
	<path class="st18" d="M55.7,80.7c4.7,4.7,7,10.3,7,16.9c0,6.6-2.3,12.2-7,16.8c-4.7,4.6-10.3,6.9-16.9,6.9
		c-6.6,0-12.2-2.3-16.9-6.9c-4.7-4.7-7-10.3-7-16.9c0-6.6,2.3-12.2,7-16.9c4.7-4.7,10.3-7,16.9-7C45.3,73.7,51,76,55.7,80.7
		 M50.3,86.2c-3.2-3.2-7-4.8-11.6-4.8c-4.5,0-8.3,1.6-11.5,4.8c-3.2,3.2-4.8,7.1-4.8,11.6c0,4.5,1.6,8.4,4.8,11.6
		c3.2,3.2,7.1,4.8,11.6,4.8c4.5,0,8.4-1.6,11.5-4.8c3.2-3.2,4.8-7,4.8-11.5C55.2,93.3,53.6,89.4,50.3,86.2"/>
	<path class="st19" d="M55.7,80.7c-4.7-4.7-10.3-7-16.9-7c-6.6,0-12.2,2.3-16.9,7s-7,10.3-7,16.9c0,6.6,2.3,12.2,7,16.8
		c4.7,4.6,10.3,6.9,16.9,6.9c6.6,0,12.2-2.3,16.9-6.9c4.7-4.7,7-10.3,7-16.9C62.7,91,60.3,85.4,55.7,80.7 M59.8,118.7
		c-5.8,5.8-12.9,8.7-21.1,8.7s-15.3-2.9-21.1-8.7c-5.8-5.8-8.7-12.8-8.7-21.1s2.9-15.3,8.7-21.1s12.9-8.8,21.1-8.8
		s15.3,2.9,21.1,8.8s8.8,12.9,8.8,21.1S65.6,112.9,59.8,118.7"/>
	
		<radialGradient id="SVGID_8_" cx="15886.7021" cy="14602.8359" r="819.2" gradientTransform="matrix(6.820000e-02 0 0 6.820000e-02 -1026.0015 -906.2238)" gradientUnits="userSpaceOnUse">
		<stop  offset="0" style="stop-color:#DAD7BE"/>
		<stop  offset="1" style="stop-color:#ABA46D"/>
	</radialGradient>
	<path class="st20" d="M59.8,118.7c5.8-5.8,8.8-12.8,8.8-21.1s-2.9-15.3-8.8-21.1s-12.9-8.8-21.1-8.8s-15.3,2.9-21.1,8.8
		S8.8,89.4,8.8,97.6s2.9,15.3,8.7,21.1c5.8,5.8,12.9,8.7,21.1,8.7S53.9,124.5,59.8,118.7 M63.8,122.7c-6.9,6.9-15.3,10.4-25.1,10.4
		s-18.2-3.5-25.1-10.4c-6.9-6.9-10.4-15.3-10.4-25.1s3.5-18.2,10.4-25c6.9-6.9,15.3-10.4,25.1-10.4s18.2,3.5,25.1,10.4
		c6.9,6.9,10.4,15.3,10.4,25.1S70.7,115.8,63.8,122.7"/>
	
		<radialGradient id="SVGID_9_" cx="70310.3594" cy="61885.0313" r="819.2" gradientTransform="matrix(1.630000e-02 0 0 1.630000e-02 -1107.2875 -919.5363)" gradientUnits="userSpaceOnUse">
		<stop  offset="0" style="stop-color:#DAD7BE"/>
		<stop  offset="1" style="stop-color:#9B927D"/>
	</radialGradient>
	<path class="st21" d="M38.6,84.9c3.5,0,6.5,1.3,8.9,3.8c2.5,2.5,3.8,5.4,3.8,8.9s-1.3,6.5-3.8,9c-2.5,2.5-5.4,3.7-8.9,3.7
		s-6.5-1.2-9-3.7c-2.5-2.5-3.7-5.5-3.7-9s1.2-6.5,3.7-8.9C32.1,86.2,35.1,84.9,38.6,84.9"/>
	
		<radialGradient id="SVGID_10_" cx="77558.6328" cy="20721.0371" r="819.2" fx="77776.2344" fy="20721.0371" gradientTransform="matrix(1.480000e-02 0 0 4.830000e-02 -1095.5962 -946.5865)" gradientUnits="userSpaceOnUse">
		<stop  offset="0" style="stop-color:#F2F2F2"/>
		<stop  offset="1" style="stop-color:#6A6A6A"/>
	</radialGradient>
	<path class="st22" d="M53.4,43.3l-0.1,1.3L47,99c-0.1,1.1-1.3,2.4-3.5,4.1c-2.2,1.6-4.1,2.1-5.8,1.6s-3.2-1.3-4.5-2.4
		c-1.3-1.1-2-2.2-2.1-3.3l-6.4-54.4v-2.8v-0.4c0-3.9,1.4-7.3,4.2-10.2c2.8-2.8,6.2-4.2,10.1-4.2c4,0,7.3,1.4,10.1,4.2
		c2.8,2.8,4.2,6.2,4.2,10.2L53.4,43.3"/>
</g>
<g transform="matrix(1.0, 0.0, 0.0, 1.0, 80.3, 67.85)" class="st9">
	<path class="st12" d="M-51.8,16.5c0.8,0,1.4,1.4,2,4.2s0.8,6.1,0.8,10.1c0,3.9-0.3,7.2-0.8,10c-0.5,2.8-1.2,4.2-2,4.2
		c-0.7,0-1.4-1.4-2-4.2c-0.5-2.8-0.8-6.1-0.8-10.1c0-3.9,0.3-7.2,0.8-10C-53.1,17.9-52.5,16.5-51.8,16.5"/>
	<path class="st11" d="M-49.7,133.4l-3.3-0.2c-1.6-1.1-2.6-3.3-2.9-6.7l-6.8-78.6c-1-12.4-0.3-24,2.3-34.9
		c3-11.9,6.8-17.8,11.5-17.8h0.1l1.3,0.1c-4.1,1.2-7.4,7.1-10.1,17.7c-2.6,10.9-3.4,22.5-2.4,34.9l6.8,78.6c0.3,3.4,1.3,5.6,2.9,6.7
		L-49.7,133.4"/>
	<path class="st10" d="M-47.3-4.7l1.5-0.1h0.1l1.4,0.1v136.4l-0.6,0.6c-1.7,1.3-3.3,1.7-4.8,1.1l-0.4-0.2c-1.6-1.1-2.6-3.3-2.9-6.7
		l-6.8-78.6c-1-12.4-0.3-24,2.4-34.9C-54.7,2.3-51.3-3.6-47.3-4.7 M-51.8,16.5c-0.7,0-1.4,1.4-2,4.2c-0.5,2.8-0.8,6.1-0.8,10
		c0,4,0.3,7.3,0.8,10.1c0.6,2.8,1.2,4.2,2,4.2c0.8,0,1.4-1.4,2-4.2c0.5-2.8,0.8-6.1,0.8-10c0-4-0.3-7.3-0.8-10.1S-51,16.5-51.8,16.5
		"/>
	<path class="st11" d="M48.8,133.5c-1.2,0.4-2.3,0.4-3.3-0.3c-1.6-1.1-2.6-3.3-2.9-6.7L36,47.9c-1-12.4-0.3-24,2.3-34.9
		c3-11.9,6.8-17.8,11.5-17.8H50l1.3,0.2C47.2-3.5,43.8,2.4,41.2,13c-2.6,10.9-3.4,22.5-2.4,34.9l6.8,78.7c0.3,3.4,1.3,5.6,2.9,6.7
		L48.8,133.5"/>
	<path class="st10" d="M51.3-4.7l1.5-0.2h0.1l1.4,0.2v136.4l-0.6,0.6c-1.7,1.3-3.3,1.7-4.8,1.1l-0.4-0.3c-1.6-1.1-2.6-3.3-2.9-6.7
		l-6.8-78.7c-1-12.4-0.3-24,2.4-34.9C43.8,2.4,47.2-3.5,51.3-4.7 M48.5,40.7c0.5-2.8,0.8-6.1,0.8-10c0-4-0.3-7.3-0.8-10.1
		s-1.2-4.1-2-4.1c-0.7,0-1.4,1.4-2,4.1c-0.5,2.8-0.8,6.1-0.8,10c0,4,0.3,7.3,0.8,10.1c0.6,2.8,1.2,4.3,2,4.3
		C47.3,44.9,47.9,43.5,48.5,40.7"/>
	<path class="st12" d="M48.5,40.7c-0.5,2.8-1.2,4.3-2,4.3c-0.7,0-1.4-1.4-2-4.3c-0.5-2.8-0.8-6.1-0.8-10.1c0-3.9,0.3-7.2,0.8-10
		c0.6-2.8,1.2-4.1,2-4.1c0.8,0,1.4,1.4,2,4.1s0.8,6.1,0.8,10.1C49.3,34.6,49,37.9,48.5,40.7"/>
	<path class="st14" d="M-28.2-13.8h1.7c0.6,5.4,2.9,10.1,6.9,14.2c4.8,4.8,10.5,7.2,17.3,7.2l1.7,0l1.6,0c6.7,0,12.5-2.4,17.3-7.2
		c4.1-4.1,6.5-9,7.1-14.6c7.3,0.6,13.5,3.6,18.6,9.1c1.8,1.9,3,3.9,3.8,6.2v231c-3.6,5-7.5,9.7-11.8,14.1c-2,2.1-3.8,4.4-5.3,7
		c-3.3,5.5-5.9,11.3-8,17.2l-1.7,4.7h-46v-29.6c-10.2,1.2-18.7-1.8-25.4-8.9c-1.8-1.9-3-4.1-3.8-6.6l-0.7-2.7
		c-0.7-3.1-1.1-6.2-1.1-9.5V13.9c-0.6-12.5,4.7-21,15.8-25.5C-36.3-13.1-32.3-13.8-28.2-13.8"/>
	<path class="st13" d="M-25.7-17.1l0,1.2c0,6.7,2.4,12.5,7.1,17.3c4.8,4.8,10.5,7.2,17.3,7.2s12.5-2.4,17.3-7.2
		c4.8-4.8,7.2-10.5,7.2-17.3v-1.2h3.2c18.5,0,26,9.3,22.5,27.8L25.5,133.3v126.2c0,18.5-9.3,27.8-27.8,27.8h-50.3
		c-18.5,0-27.8-9.3-27.8-27.8V133.3L-57,10.6C-53.6-7.3-43.2-16.6-25.7-17.1"/>
	<path class="st23" d="M2.3,177.2c5.4,5.4,8.1,12,8.1,19.6v40.7c0,7.7-2.7,14.2-8.1,19.5c-5.4,5.4-11.9,8.1-19.6,8.1h-25.1
		c-7.7,0-14.2-2.7-19.7-8.1c-5.3-5.3-8-11.8-8-19.5v-40.7c0-7.6,2.7-14.2,8-19.6c5.5-5.4,12-8.1,19.7-8.1h25.1
		C-9.5,169.2-3,171.8,2.3,177.2 M0.3,181.2c-5-4.8-11.1-7.2-18.3-7.3h-23.6c-7.2,0-13.4,2.4-18.5,7.3c-5,4.9-7.4,10.8-7.4,17.6v36.6
		c0,6.9,2.5,12.7,7.4,17.6c5.1,4.9,11.3,7.3,18.5,7.3H-18c7.2,0,13.3-2.4,18.3-7.3c5.1-4.8,7.7-10.7,7.7-17.6v-36.6
		C8,192,5.4,186.1,0.3,181.2"/>
	<path class="st24" d="M0.3,181.2C5.4,186.1,8,192,8,198.9v36.6c0,6.9-2.6,12.7-7.7,17.6c-5,4.9-11.1,7.3-18.3,7.3h-23.6
		c-7.2,0-13.4-2.4-18.5-7.3c-5-4.8-7.4-10.7-7.4-17.6v-36.6c0-6.9,2.5-12.8,7.4-17.6c5.1-4.8,11.3-7.2,18.5-7.3H-18
		C-10.8,174-4.7,176.4,0.3,181.2"/>
</g>
<g transform="matrix(1.0, 0.0, 0.0, 1.0, 15.35, 15.4)">
	
		<radialGradient id="SVGID_11_" cx="14131.4697" cy="-25876.2012" r="492.5654" gradientTransform="matrix(1.900000e-02 0 0 -1.900000e-02 -204.4632 -461.2343)" gradientUnits="userSpaceOnUse">
		<stop  offset="0" style="stop-color:#365052"/>
		<stop  offset="1" style="stop-color:#07151B"/>
	</radialGradient>
	<path class="st25" d="M71.5,27.6c1.8,1.8,2.7,4,2.7,6.6c0,2.5-0.9,4.7-2.7,6.6c-1.8,1.8-4,2.7-6.5,2.7c-2.6,0-4.8-0.9-6.6-2.7
		c-1.8-1.8-2.7-4-2.7-6.6c0-2.6,0.9-4.8,2.7-6.6s4-2.7,6.6-2.7C67.5,24.9,69.7,25.8,71.5,27.6 M64.9,40.4V27.8V40.4"/>
	<path class="st26" d="M64.9,26.7v14.8"/>
</g>
<g transform="matrix(1.0, 0.0, 0.0, 1.0, 15.35, 15.4)" class="st9">
	
		<radialGradient id="SVGID_12_" cx="13970.6836" cy="-36286.7148" r="492.5654" gradientTransform="matrix(1.900000e-02 0 0 -1.900000e-02 -204.4632 -461.2343)" gradientUnits="userSpaceOnUse">
		<stop  offset="0" style="stop-color:#365052"/>
		<stop  offset="1" style="stop-color:#07151B"/>
	</radialGradient>
	<path class="st27" d="M68.4,225.4c1.8,1.8,2.7,4,2.7,6.6c0,2.5-0.9,4.7-2.7,6.6c-1.8,1.8-4,2.7-6.5,2.7c-2.6,0-4.8-0.9-6.6-2.7
		c-1.8-1.8-2.7-4-2.7-6.6c0-2.6,0.9-4.8,2.7-6.6c1.8-1.8,4-2.7,6.6-2.7C64.4,222.7,66.6,223.6,68.4,225.4 M61.8,238.2v-12.6V238.2"
		/>
	<path class="st28" d="M61.9,224.5v14.8"/>
</g>
<g transform="matrix(1.0, 0.0, 0.0, 1.0, 70.0, 55.9)">
	<path class="st0" d="M58.9,46.1c0,3.9-0.3,7.2-0.8,10c-0.5,2.8-1.2,4.3-2,4.3c-0.7,0-1.4-1.4-2-4.3c-0.5-2.8-0.8-6.1-0.8-10.1
		c0-3.9,0.3-7.2,0.8-10c0.6-2.8,1.2-4.1,2-4.1c0.8,0,1.4,1.4,2,4.1C58.7,38.7,58.9,42.1,58.9,46.1 M-40.1,36.1
		c0.5,2.8,0.8,6.1,0.8,10.1c0,3.9-0.3,7.2-0.8,10c-0.5,2.8-1.2,4.3-2,4.3c-0.7,0-1.4-1.4-2-4.3c-0.5-2.8-0.8-6.1-0.8-10.1
		c0-3.9,0.3-7.2,0.8-10c0.6-2.8,1.2-4.2,2-4.2C-41.3,31.9-40.6,33.3-40.1,36.1"/>
	<path class="st29" d="M58.5,148.9c-1.2,0.4-2.3,0.3-3.3-0.3c-1.6-1.1-2.6-3.3-2.9-6.7l-6.8-78.6c-1-12.4-0.3-24,2.3-34.9
		c3-11.9,6.8-17.8,11.5-17.8h0.1l1.3,0.2c-4.1,1.2-7.4,7.1-10.1,17.7c-2.6,10.9-3.4,22.5-2.4,34.9l6.8,78.6c0.3,3.4,1.3,5.6,2.9,6.7
		L58.5,148.9 M-40,148.8l-3.3-0.2c-1.6-1.1-2.6-3.3-2.9-6.7l-6.8-78.6c-1-12.4-0.3-24,2.3-34.9c3-11.9,6.8-17.8,11.5-17.8h0.1
		l1.3,0.1c-4.1,1.2-7.4,7.1-10.1,17.7C-50.3,39.3-51,50.9-50,63.3l6.8,78.6c0.3,3.4,1.3,5.6,2.9,6.7L-40,148.8"/>
	<path class="st30" d="M60.9,10.7l1.5-0.2h0.1l1.4,0.2v136.4l-0.6,0.6c-1.7,1.3-3.3,1.7-4.8,1.1l-0.4-0.3c-1.6-1.1-2.6-3.3-2.9-6.7
		l-6.8-78.6c-1-12.4-0.3-24,2.4-34.9C53.5,17.8,56.9,11.9,60.9,10.7 M58.9,46.1c0-4-0.3-7.3-0.8-10.1c-0.5-2.8-1.2-4.1-2-4.1
		c-0.7,0-1.4,1.4-2,4.1c-0.5,2.8-0.8,6.1-0.8,10c0,4,0.3,7.3,0.8,10.1c0.6,2.8,1.2,4.3,2,4.3c0.8,0,1.4-1.4,2-4.3
		C58.7,53.3,58.9,50,58.9,46.1 M-37.6,10.7l1.5-0.1h0.1l1.4,0.1v136.4l-0.6,0.6c-1.7,1.3-3.3,1.7-4.8,1.1l-0.4-0.2
		c-1.6-1.1-2.6-3.3-2.9-6.7L-50,63.3c-1-12.4-0.3-24,2.4-34.9C-45,17.7-41.6,11.8-37.6,10.7 M-40.1,36.1c-0.5-2.8-1.2-4.2-2-4.2
		c-0.7,0-1.4,1.4-2,4.2c-0.5,2.8-0.8,6.1-0.8,10c0,4,0.3,7.3,0.8,10.1c0.6,2.8,1.2,4.3,2,4.3c0.8,0,1.4-1.4,2-4.3
		c0.5-2.8,0.8-6.1,0.8-10C-39.3,42.2-39.6,38.8-40.1,36.1"/>
	<path class="st0" d="M37.7,10.5l0.3-0.4h4.8c5.5,0,8.6,0.8,9.4,2.5l0.1-0.3v49.8l-26.8,38.7V51.1l8-11.5h-4.2l0.1,0h4.2l0,0h-4.3
		l16.1-23.2C47.9,12.6,45.3,10.7,37.7,10.5 M-27.2,10.5l5.6-0.4h3.1l-12.8,18.5c-2.7,3.9,1.2,5.8,11.6,5.8l3.1,0.4h16.1l-2.7,0.3
		h-19.4l-3.1-0.3c-10.4,0-14.3-1.9-11.6-5.8l12.7-18.5H-27.2 M3.6,34.7l1.9-0.3h1.2L3.6,34.7"/>
	<path class="st31" d="M29.2,39.6L29,39.9h-89.3L-44,16.3c2.6-3.9,8.1-5.8,16.4-5.8h0.3h2.8L-37.2,29c-2.7,3.9,1.2,5.8,11.6,5.8
		l3.1,0.3h19.4l2.7-0.3h1.7l2.3-0.1l3.1-0.3c6.4-0.7,10.6-2.5,12.6-5.4L32,10.5h4.8h0.9c7.6,0.1,10.2,2.1,7.7,5.8L29.2,39.6
		L29.2,39.6L29.2,39.6 M29.1,39.9L29.1,39.9l-89.4,0l0.1,0H29.1"/>
</g>
<g transform="matrix(1.0, 0.0, 0.0, 1.0, 63.4, 122.5)" class="st9">
	<path class="st10" d="M67-55.3l1.4-0.2h0.1l1.4,0.2V81.1l-0.6,0.6c-1.7,1.3-3.3,1.7-4.8,1.1l-0.4-0.3c-1.6-1.1-2.6-3.3-2.9-6.7
		L54.6-2.8c-1-12.4-0.3-24,2.4-34.9C59.6-48.3,63-54.2,67-55.3 M64.2-10c0.5-2.8,0.8-6.1,0.8-10c0-4-0.3-7.3-0.8-10.1
		c-0.5-2.8-1.2-4.1-1.9-4.1c-0.7,0-1.4,1.4-2,4.1c-0.5,2.8-0.8,6.1-0.8,10c0,4,0.3,7.3,0.8,10.1c0.6,2.8,1.2,4.3,2,4.3
		C63.1-5.8,63.7-7.2,64.2-10 M-31.5-55.4l1.5-0.1h0.1l1.4,0.1V81l-0.6,0.6c-1.7,1.3-3.3,1.7-4.7,1.1l-0.4-0.2
		c-1.6-1.1-2.6-3.3-2.9-6.7l-6.8-78.6c-1-12.4-0.3-24,2.4-34.9C-38.9-48.3-35.5-54.2-31.5-55.4 M-36-34.2c-0.7,0-1.4,1.4-2,4.2
		c-0.5,2.8-0.8,6.1-0.8,10c0,4,0.3,7.3,0.8,10.1c0.6,2.8,1.2,4.2,2,4.2c0.8,0,1.4-1.4,2-4.2c0.5-2.8,0.8-6.1,0.8-10
		c0-4-0.3-7.3-0.8-10.1S-35.2-34.2-36-34.2"/>
	<path class="st11" d="M64.6,82.8c-1.2,0.4-2.3,0.3-3.3-0.3c-1.6-1.1-2.6-3.3-2.9-6.7L51.7-2.8c-1-12.4-0.3-24,2.3-34.9
		c3-11.9,6.8-17.8,11.5-17.8h0.1l1.3,0.2c-4.1,1.2-7.4,7.1-10.1,17.7c-2.6,10.9-3.4,22.5-2.4,34.9l6.8,78.7c0.3,3.4,1.3,5.6,2.9,6.7
		L64.6,82.8 M-33.9,82.7l-3.3-0.2c-1.6-1.1-2.6-3.3-2.9-6.7l-6.8-78.6c-1-12.4-0.3-24,2.3-34.9c3-11.9,6.8-17.8,11.5-17.8h0.1
		l1.3,0.1c-4.1,1.2-7.4,7.1-10.1,17.7c-2.6,10.9-3.4,22.5-2.4,34.9l6.8,78.6c0.3,3.4,1.3,5.6,2.9,6.7L-33.9,82.7"/>
	<path class="st12" d="M64.2-10c-0.5,2.8-1.2,4.3-1.9,4.3c-0.7,0-1.4-1.4-2-4.3c-0.5-2.8-0.8-6.1-0.8-10.1c0-3.9,0.3-7.2,0.8-10
		c0.6-2.8,1.2-4.1,2-4.1c0.8,0,1.4,1.4,1.9,4.1C64.8-27.3,65-24,65-20C65-16.1,64.8-12.8,64.2-10 M-36-34.2c0.8,0,1.4,1.4,2,4.2
		s0.8,6.1,0.8,10.1c0,3.9-0.3,7.2-0.8,10c-0.5,2.8-1.2,4.2-2,4.2c-0.7,0-1.4-1.4-2-4.2c-0.5-2.8-0.8-6.1-0.8-10.1
		c0-3.9,0.3-7.2,0.8-10C-37.3-32.8-36.7-34.2-36-34.2"/>
	<path class="st32" d="M37.1-23l0.4,1.3l-2.7-0.1l-3.1-0.4H12.3l-2.7,0.4H8l-2.3,0.1l-3.1,0.3C-3.8-20.5-8-18.4-10-15.1L-22.8,6
		h-4.8h-0.9c-3.6-0.1-6.1-0.6-7.4-1.6l0.5-0.9l0.1,0.2l15.5-27.5c0.8,0.3,1.7,0.6,2.8,0.8H37.1 M41.8-7.5l3.8,12.4
		C43.1,5.6,40.2,6,36.8,6h-3.2L41.8-7.5 M46.8,4.5l0-0.2L46.8,4.5L46.8,4.5 M69.1-27.5h0.4L53.2-0.6c-1,1.7-2.4,3.1-4.3,4.1L63.8-23
		H64c2.4-0.6,3.8-1.7,4-3.3L69.1-27.5 M48.7,3.6L48.7,3.6L48.7,3.6L48.7,3.6"/>
	<path class="st12" d="M-36-122.5h69.9c6.3,0,10.4,1.6,12.2,4.8l0.7,1.9l12.6,52.6l0.1,0.4l4.1,17.1L61-55.3l-0.3,0.8l-0.1,0
		l-0.5,1.1l-0.5-2l-0.7,1.5l0.1,0.4l-0.3,0.5l-1.5-6.4L37.9-24.8l8.9,29.1l0,0.2L45.9,6l-0.3-1.1L41.8-7.5l-4.3-14.1L37.1-23
		l-0.6-1.8L56.8-61l-12.6-52.4l-0.7-1.9c-1.8-3.2-5.8-4.7-12.2-4.8h-69.1l-3.4,0.2c-1.5,0.2-2.7,0.5-3.6,0.9l0.3-0.5
		c0.8-1.6,2.8-2.6,5.9-3L-36-122.5 M18.5-45.7c7,0,12.7-1.3,17-3.8l1-0.6c-0.9,1-2,2-3.5,2.9c-4.3,2.6-10,3.8-17,3.8
		c-7,0-13.4-1.3-19.1-3.8c-5.8-2.6-9.1-5.7-10.1-9.3l-4.3-15.8c-0.7-2.4-0.1-4.6,1.6-6.6l2.3-2c-1.6,1.9-2,4-1.4,6.3l4.3,15.8
		c1,3.6,4.4,6.7,10.1,9.3c5.4,2.4,11.4,3.7,18,3.8h0.2h0.8H18.5 M-31-54.5l3.9-7l0.5,1.7l-19.6,35l8.9,29.1l-1,1.7l-9.4-30.8
		L-31-54.5"/>
	<path class="st14" d="M-36-122.5l-2.6,0.2c-3.5,0.4-5.6,1.4-6.2,3.1l0.3-0.1l-0.3,0.5c0.9-0.4,2.1-0.7,3.6-0.9l3.4-0.2h69.1
		c6.3,0,10.4,1.6,12.2,4.8l0.7,1.9L56.8-61L36.5-24.8l0.6,1.8h-54.2c-1-0.2-2-0.5-2.8-0.8l-0.2-0.1l3.8-6.8l-9.4-30.8l-0.9,1.7
		l-0.5-1.7l-3.9,7l-16.4-59.9l-0.2-1.7c0.1-1,0.6-1.8,1.5-2.5c0.3-2.1,2.4-3.4,6.4-3.8l3.4-0.2H-36 M60.6-54.4L60.6-54.4l0.4,1.3
		L60.6-54.4 M59.5-62.8l-0.1-0.4l0.2-0.5l0.2,0.4L59.5-62.8 M60.3-62.4l0.2-0.3l2,7.3L60.3-62.4 M68.9-32l0.4,1.6
		c0.3,1.2,0.2,2.1-0.2,2.9L68-26.3c-0.2,1.6-1.6,2.7-4,3.3h-0.3h-0.2l3.9-6.8l0,0.3L68.9-32 M-13.6-80.9l-2.3,2
		c-1.8,2-2.3,4.2-1.6,6.6l4.3,15.8c1,3.6,4.4,6.7,10.1,9.3C2.6-44.7,9-43.5,16-43.5c7,0,12.7-1.3,17-3.8c1.5-0.9,2.6-1.8,3.5-2.9
		l-1,0.6c-4.3,2.6-10,3.8-17,3.8c6.5-0.1,11.8-1.4,15.9-3.8c1.4-0.8,2.5-1.7,3.3-2.6c0.5-1.4,0.6-2.9,0.1-4.4l-4.3-15.8
		c-1-3.6-4.3-6.7-10-9.3c-5.8-2.6-12.2-3.9-19.2-3.9c-7,0-12.7,1.3-16.9,3.9L-13.6-80.9"/>
	<path class="st33" d="M46.8,4.3l-8.9-29.1l19.3-34.4l1.5,6.4l0.3-0.5l-0.1-0.4l0.7-1.5l0.5,2l0.5-1.1l0.4,1.3l-0.3-1.4l0.3-0.8
		l2.5,9.5l-4.1-17.1l0.3-0.5l0.3,1.3l0.3-0.4l2.2,7.1l6.8,22.4L68.9-32l-1.4,2.5l0-0.3L63.6-23h0.2L49,3.5l-0.2,0.3l0-0.2v0l0,0.1
		L47.3,6L46.8,4.3L46.8,4.3 M-26.6-59.8l0.9-1.7l9.4,30.8l-3.8,6.8l0.2,0.1L-35.3,3.8l-0.1-0.2l-0.5,0.9L-36.8,6l-0.5-1.7l-8.9-29.1
		L-26.6-59.8"/>
</g>
<g transform="matrix(1.0, 0.0, 0.0, 1.0, 82.0, 55.0)">
	<path class="st0" d="M16.7,40.8h-0.1l-4.4-0.2H-64l5.4-0.3h76.8l6.8,0.5H16.7 M-65.7,41.2H19l-2-0.3h8c3.9,1.8,5.8,5.6,5.8,11.3
		v186l-0.3,3.6c-1.1,5.9-5.2,8.9-12.2,8.9h-2.1c4.7-0.9,7.5-3.8,8.4-8.6l0.3-3.6v-186c0-5.7-2-9.5-5.9-11.3L-65.7,41.2L-65.7,41.2"
		/>
	<path class="st31" d="M16.7,40.8l0.3,0l2,0.3h-84.7h-5.4l6.5-0.5h0.6h76.2l4.4,0.2H16.7 M16.2,250.6l-3.9,0.4h-76.8
		c-7,0-11.1-3-12.2-8.9l-0.3-3.6v-186c0-5.7,1.9-9.5,5.8-11.3h5.3H19c3.9,1.8,5.9,5.5,5.9,11.3v186l-0.3,3.6
		C23.7,246.9,20.9,249.7,16.2,250.6 M4.5,113.8c0-7.8-2.8-14.5-8.4-20.1c-5.5-5.5-12.2-8.3-20-8.3s-14.5,2.8-20.1,8.3
		c-5.5,5.6-8.3,12.3-8.3,20.1v33.9c0,7.8,2.8,14.5,8.3,20c5.6,5.6,12.3,8.4,20.1,8.4c7.8,0,14.5-2.8,20-8.4c5.6-5.5,8.4-12.2,8.4-20
		V113.8"/>
	<path class="st34" d="M28.7,225.2H-76.6v-37.8H28.7V225.2"/>
	<path class="st29" d="M46.4,150.7c-1.2,0.4-2.2,0.3-3.3-0.3c-1.6-1.1-2.6-3.3-2.9-6.7l-6.8-78.7c-0.7-7.8-0.6-15.4,0.3-22.6
		c0.4-4.2,1.1-8.3,2.1-12.3c3-11.9,6.8-17.8,11.6-17.8h0.1l1.3,0.2c-4.1,1.2-7.4,7.1-10.1,17.7c-1,4-1.7,8.1-2.1,12.3
		c-0.8,7.3-0.9,14.8-0.3,22.6l6.8,78.7c0.3,3.4,1.3,5.6,2.9,6.7L46.4,150.7"/>
	<path class="st30" d="M48.8,12.5l1.5-0.2h0.1l1.4,0.2V149l-0.6,0.6c-1.7,1.3-3.3,1.7-4.8,1.1l-0.4-0.3c-1.6-1.1-2.6-3.3-2.9-6.7
		l-6.8-78.7c-0.7-7.8-0.6-15.4,0.3-22.6c0.4-4.2,1.1-8.3,2.1-12.3C41.3,19.6,44.7,13.7,48.8,12.5 M46.6,42.5L46,37.8
		c-0.5-2.8-1.2-4.2-2-4.2c-0.7,0-1.4,1.4-2,4.2l-0.6,4.7l-0.2,5.3c0,4,0.3,7.3,0.8,10.1c0.6,2.8,1.2,4.3,2,4.3c0.8,0,1.4-1.4,2-4.3
		c0.5-2.8,0.8-6.1,0.8-10L46.6,42.5"/>
	<path class="st0" d="M46.6,42.5l0.2,5.4c0,3.9-0.3,7.2-0.8,10c-0.5,2.8-1.2,4.3-2,4.3c-0.7,0-1.4-1.4-2-4.3
		c-0.5-2.8-0.8-6.1-0.8-10.1l0.2-5.3l0.6-4.7c0.6-2.8,1.2-4.2,2-4.2c0.8,0,1.4,1.4,2,4.2L46.6,42.5"/>
	
		<radialGradient id="SVGID_13_" cx="32938.9883" cy="-3173.7488" r="819.2" gradientTransform="matrix(6.200000e-03 0 0 -0.1513 -180.9998 -333.9485)" gradientUnits="userSpaceOnUse">
		<stop  offset="0" style="stop-color:#FFFFFF;stop-opacity:0.502"/>
		<stop  offset="1" style="stop-color:#FFFFFF;stop-opacity:0"/>
	</radialGradient>
	<path class="st35" d="M16.7,44.4h13v206.4h-13V44.4"/>
	
		<radialGradient id="SVGID_14_" cx="32938.9883" cy="-3173.7488" r="819.2" gradientTransform="matrix(6.200000e-03 0 0 -0.1513 -280.9998 -333.9485)" gradientUnits="userSpaceOnUse">
		<stop  offset="0" style="stop-color:#FFFFFF;stop-opacity:0.502"/>
		<stop  offset="1" style="stop-color:#FFFFFF;stop-opacity:0"/>
	</radialGradient>
	<path class="st36" d="M-83.3,44.4h13v206.4h-13V44.4"/>
	
		<radialGradient id="SVGID_15_" cx="85089.7344" cy="3404.3816" r="819.2" gradientTransform="matrix(0 6.200000e-03 6.690000e-02 0 -254.8812 -485.2667)" gradientUnits="userSpaceOnUse">
		<stop  offset="0" style="stop-color:#FFFFFF;stop-opacity:0.502"/>
		<stop  offset="1" style="stop-color:#FFFFFF;stop-opacity:0"/>
	</radialGradient>
	<path class="st37" d="M26.6,46.8c-0.6,1.3-1.3,2-2,2H-78.8c-0.8,0-1.4-0.7-2-2c-0.6-1.2-0.9-2.7-0.9-4.5c0-1.7,0.3-3.3,0.9-4.6
		c0.6-1.3,1.2-1.9,2-1.9H24.6c0.8,0,1.5,0.6,2,1.9c0.6,1.3,0.9,2.9,0.9,4.6C27.5,44.1,27.2,45.6,26.6,46.8"/>
	
		<radialGradient id="SVGID_16_" cx="85089.7344" cy="3404.3816" r="819.2" gradientTransform="matrix(0 6.200000e-03 6.690000e-02 0 -252.6312 -278.9167)" gradientUnits="userSpaceOnUse">
		<stop  offset="0" style="stop-color:#FFFFFF;stop-opacity:0.502"/>
		<stop  offset="1" style="stop-color:#FFFFFF;stop-opacity:0"/>
	</radialGradient>
	<path class="st38" d="M29.7,248.6l0,1.1H-79.4l0-1.1c0-1.7,0.3-3.3,0.9-4.6c0.6-1.3,1.2-1.9,2-1.9H26.8c0.8,0,1.5,0.6,2,1.9
		C29.4,245.4,29.7,246.9,29.7,248.6"/>
</g>
</svg>
