<?xml version="1.0" encoding="UTF-8" standalone="no"?>
<svg xmlns:ffdec="https://www.free-decompiler.com/flash" xmlns:xlink="http://www.w3.org/1999/xlink" ffdec:objectType="frame" height="16.4px" width="15.85px" xmlns="http://www.w3.org/2000/svg">
  <g transform="matrix(1.0, 0.0, 0.0, 1.0, 7.95, 6.5)">
    <use ffdec:characterId="737" height="16.4" transform="matrix(1.0, 0.0, 0.0, 1.0, -7.95, -6.5)" width="15.85" xlink:href="#shape0"/>
  </g>
  <defs>
    <g id="shape0" transform="matrix(1.0, 0.0, 0.0, 1.0, 7.95, 6.5)">
      <path d="M7.9 2.0 Q7.9 5.3 5.6 7.6 3.3 9.9 0.0 9.9 -3.3 9.9 -5.6 7.6 -7.95 5.3 -7.95 2.0 -7.95 -1.3 -5.6 -3.6 -3.3 -5.95 0.0 -5.95 3.3 -5.95 5.6 -3.6 7.9 -1.3 7.9 2.0" fill="url(#gradient0)" fill-rule="evenodd" stroke="none"/>
      <path d="M6.0 0.0 Q6.0 2.5 4.25 4.25 2.5 6.0 0.0 6.0 -2.5 6.0 -4.25 4.25 -6.0 2.5 -6.0 0.0 -6.0 -2.5 -4.25 -4.25 -2.5 -6.0 0.0 -6.0 2.5 -6.0 4.25 -4.25 6.0 -2.5 6.0 0.0" fill="#333333" fill-rule="evenodd" stroke="none"/>
      <path d="M6.0 0.0 Q6.0 2.5 4.25 4.25 2.5 6.0 0.0 6.0 -2.5 6.0 -4.25 4.25 -6.0 2.5 -6.0 0.0 -6.0 -2.5 -4.25 -4.25 -2.5 -6.0 0.0 -6.0 2.5 -6.0 4.25 -4.25 6.0 -2.5 6.0 0.0 Z" fill="none" stroke="#000000" stroke-linecap="round" stroke-linejoin="round" stroke-opacity="0.5019608" stroke-width="1.0"/>
      <path d="M3.55 0.0 Q3.55 1.5 2.5 2.5 1.5 3.55 0.0 3.55 -1.45 3.55 -2.5 2.5 -3.55 1.5 -3.55 0.0 -3.55 -1.45 -2.5 -2.5 -1.45 -3.55 0.0 -3.55 1.5 -3.55 2.5 -2.5 3.55 -1.45 3.55 0.0" fill="#ffffff" fill-rule="evenodd" stroke="none"/>
      <path d="M3.55 0.0 Q3.55 1.5 2.5 2.5 1.5 3.55 0.0 3.55 -1.45 3.55 -2.5 2.5 -3.55 1.5 -3.55 0.0 -3.55 -1.45 -2.5 -2.5 -1.45 -3.55 0.0 -3.55 1.5 -3.55 2.5 -2.5 3.55 -1.45 3.55 0.0 Z" fill="none" stroke="#cccccc" stroke-linecap="round" stroke-linejoin="round" stroke-opacity="0.5019608" stroke-width="1.0"/>
    </g>
    <radialGradient cx="0" cy="0" fx="345.6" fy="0" gradientTransform="matrix(0.0, -0.01, 0.0108, 0.0, 0.15, 3.5)" gradientUnits="userSpaceOnUse" id="gradient0" r="819.2" spreadMethod="pad">
      <stop offset="0.6470588235294118" stop-color="#000000" stop-opacity="0.8"/>
      <stop offset="0.807843137254902" stop-color="#000000" stop-opacity="0.0"/>
    </radialGradient>
  </defs>
</svg>
