<?xml version="1.0" encoding="utf-8"?>
<!-- Generator: Adobe Illustrator 23.0.6, SVG Export Plug-In . SVG Version: 6.00 Build 0)  -->
<svg version="1.1" id="Слой_1" ffdec:objectType="shape" xmlns:ffdec="https://www.free-decompiler.com/flash"
	 xmlns="http://www.w3.org/2000/svg" xmlns:xlink="http://www.w3.org/1999/xlink" x="0px" y="0px" viewBox="0 0 317.3 126.7"
	 style="enable-background:new 0 0 317.3 126.7;" xml:space="preserve">
<style type="text/css">
	.st0{fill-rule:evenodd;clip-rule:evenodd;fill:#B8CFCE;}
	.st1{fill-rule:evenodd;clip-rule:evenodd;fill:#4D6F6A;}
	.st2{fill-rule:evenodd;clip-rule:evenodd;fill:#222222;}
	.st3{fill-rule:evenodd;clip-rule:evenodd;}
	.st4{fill-rule:evenodd;clip-rule:evenodd;fill:#D9F9CA;}
	.st5{fill-rule:evenodd;clip-rule:evenodd;fill:#2F2F2F;}
	.st6{fill-rule:evenodd;clip-rule:evenodd;fill:#5E5E5E;}
	.st7{fill-rule:evenodd;clip-rule:evenodd;fill:#555555;}
	.st8{fill-rule:evenodd;clip-rule:evenodd;fill:#444444;}
	.st9{fill-rule:evenodd;clip-rule:evenodd;fill:#37514E;}
	.st10{fill-rule:evenodd;clip-rule:evenodd;fill:#96B6B1;}
	.st11{fill-rule:evenodd;clip-rule:evenodd;fill:#FFFFFF;}
	.st12{fill-rule:evenodd;clip-rule:evenodd;fill:#1E1E1E;}
	.st13{fill-rule:evenodd;clip-rule:evenodd;fill:#4D4D4D;}
	.st14{fill-rule:evenodd;clip-rule:evenodd;fill:#333333;}
	.st15{fill-rule:evenodd;clip-rule:evenodd;fill:#1A1A1A;}
	.st16{fill-rule:evenodd;clip-rule:evenodd;fill:#2B332D;}
	.st17{fill-rule:evenodd;clip-rule:evenodd;fill:#A5C0BD;}
	.st18{fill-rule:evenodd;clip-rule:evenodd;fill:#9FBDBA;}
	.st19{fill:#FFFFFF;}
</style>
<g>
	<polyline class="st0" points="179.8,208.7 180.6,208.7 180.6,597.4 7.8,597.5 7.8,597 7.8,208.8 179.8,208.7 	"/>
</g>
<g>
	<path class="st0" d="M-94.6,600.9l-0.8-0.8c-2.6-2.6-3.9-5.7-3.9-9.4c0-1,0.1-2,0.3-2.9V221.3l-0.1-1.7c0-3.7,1.3-6.8,3.9-9.4
		c2.6-2.6,5.7-3.9,9.4-3.9l2.1,0.1h21.6l1.7-0.1c1.6,0,3.2,0.3,4.5,0.8c1.1,0.4,2.1,0.9,3.1,1.6l1.8,1.5c2.2,2.2,3.5,4.9,3.9,7.9
		v0.3l0,0.8v0.4l0,1.2v149.8v0.8h10.8l0.5-0.1h5.3l0.4,0.1h5.1v0l0.1,0.1l1,0.3l0.9,0.4l2.2,1.2l1.8,1.5c1.9,1.9,3.1,4.2,3.6,6.7
		l0,33.3h0.2v9h-0.2v5.8c-0.5,2.6-1.7,4.8-3.7,6.8c-2,2-4.2,3.2-6.8,3.7v0.2h-0.9l-1.8,0.1h0l-1.7-0.1h-10.2v1.7v0.8h0.3h2.1
		l-0.6,0.4c-1.2,0.8-2.4,1.8-3.5,3c-3.4,3.4-5.5,7.2-6.4,11.5l-0.4,4.5v0.4l0.4,4.5c0.8,4.5,2.9,8.5,6.4,12l1.8,1.5
		c2.6,2.2,5.4,3.7,8.5,4.5l0.7,0.2l0.9,0.2l0.1,49.4c-4.6,0.8-8.7,3-12.2,6.5c-3.4,3.4-5.5,7.2-6.4,11.5l-0.5,4.6v0.4l0.5,4.5
		c0.8,4.5,2.9,8.5,6.4,12l1.8,1.6c2.5,2.1,5.3,3.6,8.3,4.4l1.2,0.3l1,0.2v8l0.1,1v0.4v0.4l-0.1,1.7v0.8h-0.1
		c-0.5,2.6-1.7,4.9-3.7,6.9c-2.2,2.2-4.8,3.5-7.8,3.8v0.1h-44l-3.2-0.4C-91.2,603.2-93,602.3-94.6,600.9"/>
</g>
<g>
	<polyline class="st0" points="-36.5,419.3 -36.5,416.9 -37.1,416.9 -37.1,419.3 -36.5,419.3 	"/>
</g>
<g>
	<polyline class="st0" points="192.5,596.7 192.5,149.3 445,149.4 445.1,598.4 192.5,598.4 192.5,596.7 	"/>
</g>
<g>
	<polyline class="st1" points="7.8,597 7,597 7,208.3 179.8,208.2 179.8,208.7 7.8,208.8 7.8,597 	"/>
</g>
<g>
	<path class="st1" d="M-52.7,208.7c-1-0.7-2-1.2-3.1-1.6c-1.4-0.5-2.9-0.7-4.5-0.8l-1.7,0.1h-21.6l-2.1-0.1c-3.7,0-6.8,1.3-9.4,3.9
		c-2.6,2.6-3.9,5.7-3.9,9.4l0.1,1.7v366.5c-0.2,0.9-0.3,1.9-0.3,2.9c0,3.7,1.3,6.8,3.9,9.4l0.8,0.8l-1.8-1.5
		c-2.6-2.6-3.9-5.7-3.9-9.4c0-1,0.1-2,0.3-2.9V220.6l-0.1-1.7c0-3.7,1.3-6.8,3.9-9.4c2.6-2.6,5.7-3.9,9.4-3.9l2.1,0.1H-63l1.7-0.1
		c1.6,0,3.2,0.3,4.6,0.8C-55.3,206.9-54,207.7-52.7,208.7"/>
</g>
<g>
	<path class="st1" d="M-31.2,580.8l-1.2-0.3c-3-0.8-5.8-2.3-8.3-4.4c2.2,1.7,4.7,2.9,7.4,3.6l2.1,0.5V580.8"/>
</g>
<g>
	<path class="st1" d="M-31.3,485.4l-0.7-0.2c-3.1-0.8-6-2.3-8.5-4.5c2.3,1.8,4.8,3,7.6,3.7l1.7,0.4V485.4"/>
</g>
<g>
	<polyline class="st1" points="-40.2,442.8 -40.4,442.8 -40.4,442 -39.1,442 -39.7,442.4 -40.2,442.8 	"/>
</g>
<g>
	<path class="st1" d="M-20.9,373.5l-2.2-1.2l-0.9-0.4l-1-0.3l-0.1-0.1v0h-5.1l-0.4-0.1h-5.3l-0.5,0.1h-10.8v-0.8h9.8l0.5-0.1h5.3
		l0.5,0.1h5v0l0.1,0.1l1,0.3l0.9,0.4C-22.9,372-21.8,372.7-20.9,373.5"/>
</g>
<g>
	<polyline class="st1" points="-36.5,419.3 -37.1,419.3 -37.1,416.9 -36.5,416.9 -36.5,419.3 	"/>
</g>
<g>
	<polyline class="st1" points="192.5,596.7 191.2,596.7 191.2,147.7 445,147.7 445,149.4 192.5,149.3 192.5,596.7 	"/>
</g>
<g>
	<path class="st2" d="M669.8,409.2c3.8,1.2,5.7,4.4,5.7,9.4l0,170.5c0,6.7-3.3,10-10,10H465.8c-6.7,0-10-3.3-10-10l0-170.5
		c0-5,1.9-8.2,5.7-9.4L669.8,409.2"/>
</g>
<g>
	<path class="st2" d="M656.5,239.8v17.3H473.9v125.1h-0.1v12.3c0,6.1-2,9.4-6,9.9v0.1h-4c-4.8,0-7.2-3.3-7.2-10V249.8
		c0-6.7,2.4-10,7.2-10H656.5"/>
</g>
<g>
	<path class="st2" d="M656.6,239.8h10.2c4.8,0,7.2,3.3,7.2,9.9v144.7c0,5.2-1.4,8.3-4.3,9.5v0.5l-4.5,0c-4.5-0.2-6.7-3.5-6.7-10
		v-27.6h0.1V257.1h-1.9V239.8"/>
</g>
<g>
	<path class="st3" d="M735.2,205.3l11.8,0.1l-0.1-84.2h145.8c6.7,0,10,3.3,10.1,10v270.9c0,6.7-3.3,10-10,10L745.2,412
		c-6.7,0-10-3.3-10-10V205.3"/>
</g>
<g>
	<path class="st3" d="M164.2,210.4c10,0,15,5,15,15l-0.1,283.8c0,10-4.9,15-14.9,15l-69.7,0.1l-0.1-32.8H23.2c-10,0-15-5-15-15
		l0.1-251c0-10,5-15,15-15L164.2,210.4"/>
</g>
<g>
	<path class="st3" d="M163,211.8l-138,0.1c-9.8,0-14.7,5-14.7,14.8l0,248.5c0,9.9,4.9,14.9,14.7,14.9h69.8l0,32.4l68.3,0
		c9.8,0,14.7-5,14.6-14.9l0.1-281C177.7,216.7,172.8,211.7,163,211.8"/>
</g>
<g>
	<path class="st4" d="M163,211.8c9.8,0,14.7,4.9,14.7,14.8l-0.1,281c0,9.9-4.9,14.9-14.6,14.9l-68.3,0l0-32.4H24.9
		c-9.8,0-14.7-5-14.7-14.9l0-248.5c0-9.9,4.9-14.8,14.7-14.8L163,211.8"/>
</g>
<g>
	<path class="st5" d="M458.1,286h0.3l1.4,0L458.1,286l-24.4,0c2.2,0.2,3.9,0.8,5.3,1.8l1,0.8c1.6,1.7,2.4,4.1,2.4,7.4l0,129.4
		c0,6.7-3.3,10-10,10h-31.5c-6.7,0-10-3.3-10-10l0-129.4c0-6.2,2.9-9.5,8.7-10H378l1.2,0.8c2.8,1.5,4.3,4.4,4.3,8.8v29
		c0,6.7-3.3,10-10,10h-81c-6.7,0-10-3.3-10-10v-29c0-4.1,1.3-7,3.9-8.6c0.7-0.4,1.4-0.8,2.4-1h26l2.4-0.4H403v0l0.4,0.1l0.6,0.3
		h21.5l1.3,0H458.1"/>
</g>
<g>
	<path class="st5" d="M445.4-75.3c-1.6-0.5-3.4-0.8-5.5-0.8H62c-9,0-13.5,4.5-13.5,13.5v32.4c0,6.2,2.1,10.2,6.3,12.1
		c-5.3-1.6-8-5.9-8-12.8v-32.4c0-9,4.5-13.5,13.5-13.5h377.8C441-76.7,443.4-76.2,445.4-75.3"/>
</g>
<g>
	<path class="st5" d="M390.8,449.1c0-6.7,3.3-10,10-10h31.5c6.7,0,10,3.3,10,10l0,129.4c0,6.7-3.3,10-10,10h-31.5
		c-6.7,0-10-3.3-10-10L390.8,449.1"/>
</g>
<g>
	<path class="st5" d="M282.5,352.6c0-6.7,3.3-10,10-10h81c6.7,0,10,3.3,10,10v224.5c0,6.7-3.3,10-10,10h-81c-6.7,0-10-3.3-10-10
		V352.6"/>
</g>
<g>
	<path class="st5" d="M204.1,362.2c0-6.7,3.3-10,10-10l51.5,0c6.7,0,10,3.3,10,10v189.7c0,6.7-3.3,10-10,10l-51.5,0
		c-6.7,0-10-3.3-10-10V362.2"/>
</g>
<g>
	<path class="st5" d="M430.4,150.1c8,0,12,4,12,12v110.9c0,6.7-2.8,10.6-8.5,11.7H253.6l1.4,0c-5.5-1.1-8.3-5-8.3-11.7V162.1
		c0-8,4-12,12-12H430.4"/>
</g>
<g>
	<path class="st6" d="M669.4,410c5.1,0.7,7.7,4,7.7,9.9l0,170.4c0,6.7-3.3,10-10,10.1H467.5c-6.7,0-10-3.3-10-10l-0.1-170.5
		c0-5.9,2.6-9.2,7.7-9.9L669.4,410"/>
</g>
<g>
	<path class="st0" d="M458.1,286v-34.8h0c0.2-6.1,2.6-9.1,7.1-9.1h193V242l11.8,0c2.5,1.3,3.7,4.4,3.8,9.2v144
		c0,5.2-1.4,8.3-4.3,9.5l0,0.5l-4.6,0c-4.4-0.2-6.6-3.5-6.6-10v-27.6h0.1v-109h-183v125.1h-0.2V396c0,6.1-2,9.4-6,9.9v0.1h-4
		c-4.7,0-7.1-3.3-7-10V286l1.6,0l-1.4,0H458.1"/>
</g>
<g>
	<path class="st0" d="M445.4-75.3c2.5,0.7,4.4,2.1,5.7,4c0.8,1.1,1.3,2.3,1.7,3.7c0.4,1.5,0.6,3.2,0.6,5.1v32.4v0.9
		c-0.3,8.4-4.8,12.6-13.5,12.6H62c-2.9,0-5.3-0.5-7.2-1.4c-4.2-1.9-6.3-6-6.3-12.1v-32.4c0-9,4.5-13.5,13.5-13.5h377.8
		C441.9-76.1,443.8-75.8,445.4-75.3"/>
</g>
<g>
	<path class="st7" d="M589.7,106.8l37.8,37.7l0,53.4l-37.8,37.7h-53.4l-37.7-37.8v-53.4l37.8-37.7L589.7,106.8"/>
</g>
<g>
	<path class="st8" d="M735.9,206l11.8,0l0-84.1h145.8c6.7,0,10,3.3,10,10v270.8c0,6.7-3.3,10-10,10l-147.5,0c-6.7,0-10-3.3-10-10
		V206"/>
</g>
<g>
	<path class="st9" d="M1043.3,145.5l4.5-0.4c3.2,0,6.3,0.6,9.1,1.8c2.6,1.1,4.9,2.8,7.1,5l0.2,0.2c4.3,4.4,6.5,9.8,6.5,16l-0.3,3.7
		c-0.7,4.7-2.8,8.8-6.2,12.3l-0.2,0.3c-2.3,2.3-4.8,4-7.5,5c-2.7,1.1-5.6,1.6-8.7,1.6c-2.6,0-5-0.4-7.3-1.1l-1.4-0.5
		c-2.8-1.1-5.3-2.8-7.6-5c-3.1-3.1-5.1-6.6-6.1-10.6c1,3.3,2.8,6.2,5.5,8.9c2.8,2.8,6,4.6,9.5,5.6c1.8,0.5,3.8,0.8,5.9,0.8
		c6,0,11.1-2.1,15.3-6.4l2.3-2.6l0.2-0.3c1.7-2.4,2.9-5,3.5-7.9c0.3-1.5,0.4-3,0.4-4.6c0-4.7-1.3-8.9-3.9-12.5l-0.2-0.3l-2.3-2.6
		c-2.1-2.1-4.5-3.7-7.1-4.8c-2.6-1-5.3-1.5-8.3-1.5L1043.3,145.5"/>
</g>
<g>
	<path class="st9" d="M1025.5,222.9c1,3.3,2.8,6.2,5.5,8.8c2.8,2.8,6,4.6,9.5,5.6c1.8,0.5,3.8,0.8,5.9,0.8c6,0,11.1-2.1,15.3-6.4
		l2.3-2.6l0.2-0.3c1.7-2.4,2.9-5,3.5-7.9c0.3-1.5,0.4-3,0.4-4.6c0-4.7-1.3-8.9-3.9-12.5l-0.2-0.3l-2.3-2.6c-2.1-2.1-4.5-3.7-7.1-4.8
		c-2.6-1-5.3-1.5-8.3-1.5l-3.1,0.1l4.5-0.4c3.2,0,6.3,0.6,9.1,1.8c2.6,1.1,4.9,2.8,7.1,5l0.2,0.2c4.3,4.4,6.5,9.7,6.5,15.9l-0.3,3.7
		c-0.7,4.7-2.8,8.8-6.2,12.3l-0.2,0.3c-2.3,2.3-4.8,4-7.5,5.1c-2.7,1.1-5.6,1.6-8.7,1.6c-2.6,0-5-0.4-7.3-1.1l-1.4-0.5
		c-2.8-1.1-5.3-2.8-7.6-5.1C1028.5,230.4,1026.5,226.9,1025.5,222.9"/>
</g>
<g>
	<path class="st9" d="M964.1,339.7l5.3-0.5l3.7,0.3l4.8,1l0.4,0.1h0c0.7,0.3,1.5,0.6,2.2,0.9c1,0.4,2,1,2.9,1.6
		c1.8,1.1,3.5,2.5,5.1,4l0.2,0.2c1.5,1.5,2.7,3.1,3.8,4.8l1.8,3.3l0.3,0.5l0.4,1l0.3,1l0.5,1.9c0.4,2,0.7,4.1,0.7,6.3
		c0,7.3-2.6,13.6-7.7,18.8l-0.2,0.2l-0.1,0c-5.2,5.2-11.5,7.8-18.9,7.8c-5.1,0-9.8-1.3-13.9-3.8c-1.8-1.1-3.6-2.5-5.2-4.1
		c-3.6-3.6-6-7.8-7.1-12.5c1.2,3.9,3.3,7.3,6.3,10.4c1.8,1.8,3.8,3.3,5.9,4.5c3.6,2,7.7,3,12.2,3c7.1,0,13.1-2.5,18.1-7.5l2.6-3
		l0.3-0.3c3.1-4.3,4.7-9.2,4.7-14.8c0-1.8-0.2-3.5-0.5-5.2l-0.4-1.9l-0.3-1l-0.4-1l-0.2-0.5l-1.7-3.3l-1.2-1.8l-2.8-3.3l-2.5-2.2
		c-0.9-0.7-1.9-1.4-2.9-1.9c-0.8-0.5-1.7-1-2.6-1.4c-0.7-0.3-1.5-0.6-2.3-0.8h0L973,340l-5.3-0.5L964.1,339.7"/>
</g>
<g>
	<path class="st9" d="M943.2,445.1c1.2,3.9,3.3,7.3,6.3,10.4c3.3,3.3,7.1,5.5,11.3,6.6l6.9,0.8c7.1,0,13.1-2.5,18-7.5l2.7-3l0.3-0.3
		c2-2.8,3.4-5.9,4.1-9.3c0.3-1.7,0.5-3.6,0.5-5.5c0-5.5-1.5-10.4-4.6-14.7l-0.3-0.3l-2.7-3c-2.5-2.5-5.3-4.4-8.3-5.7
		c-3-1.2-6.3-1.8-9.8-1.8l-3.6,0.2l5.3-0.5c3.8,0,7.4,0.7,10.7,2.1c3,1.3,5.8,3.2,8.3,5.8l0.3,0.3c5.1,5.2,7.6,11.5,7.6,18.8
		l-0.3,4.4c-0.8,5.5-3.3,10.3-7.3,14.5l-0.3,0.3c-2.7,2.7-5.6,4.6-8.8,5.9c-3.1,1.3-6.5,1.9-10.2,1.9c-3,0-5.9-0.4-8.6-1.3l-1.6-0.6
		c-3.2-1.3-6.2-3.3-8.9-5.9C946.7,453.9,944.3,449.8,943.2,445.1"/>
</g>
<g>
	<path class="st10" d="M1025.5,173.7c-0.6-2.1-0.8-4.3-0.8-6.5c0-6,2.1-11.2,6.3-15.4c2.1-2.1,4.5-3.7,7.1-4.8
		c1.6-0.7,3.4-1.1,5.3-1.4l3.1-0.1c3,0,5.7,0.5,8.3,1.5c2.6,1.1,4.9,2.7,7.1,4.8l2.3,2.6l0.2,0.3c2.6,3.6,3.9,7.8,3.9,12.5
		c0,1.6-0.1,3.1-0.4,4.6c-0.6,2.9-1.8,5.5-3.5,7.9l-0.2,0.3l-2.3,2.6c-4.2,4.2-9.3,6.4-15.3,6.4c-2.1,0-4-0.2-5.9-0.8
		c-3.6-1-6.7-2.8-9.5-5.6C1028.3,179.9,1026.5,176.9,1025.5,173.7"/>
</g>
<g>
	<path class="st10" d="M1043.3,194.8l3.1-0.1c3,0,5.7,0.5,8.3,1.5c2.6,1.1,4.9,2.7,7.1,4.8l2.3,2.6l0.2,0.3
		c2.6,3.6,3.9,7.8,3.9,12.5c0,1.6-0.1,3.1-0.4,4.6c-0.6,2.9-1.8,5.5-3.5,7.9l-0.2,0.3l-2.3,2.6c-4.2,4.2-9.3,6.4-15.3,6.4
		c-2.1,0-4-0.3-5.9-0.8c-3.6-1-6.7-2.8-9.5-5.6c-2.6-2.6-4.5-5.6-5.5-8.8c-0.6-2.1-0.8-4.3-0.8-6.5c0-2.2,0.3-4.3,0.8-6.3
		c1-3.4,2.8-6.5,5.5-9.2c2.1-2.1,4.5-3.7,7.1-4.8C1039.7,195.5,1041.5,195,1043.3,194.8"/>
</g>
<g>
	<path class="st10" d="M964.1,339.7l3.6-0.2l5.3,0.5l2.5,0.6h0c0.8,0.2,1.5,0.5,2.3,0.8c0.9,0.4,1.8,0.9,2.6,1.4
		c1,0.6,2,1.2,2.9,1.9l2.5,2.2l2.8,3.3l1.2,1.8l1.7,3.3l0.2,0.5l0.4,1l0.3,1l0.4,1.9c0.3,1.7,0.5,3.4,0.5,5.2
		c0,5.6-1.6,10.5-4.7,14.8l-0.3,0.3l-2.6,3c-5,5-11,7.5-18.1,7.5c-4.5,0-8.5-1-12.2-3c-2.1-1.1-4.1-2.6-5.9-4.5
		c-3.1-3.1-5.2-6.5-6.3-10.4c-0.7-2.4-1.1-5-1.1-7.7c0-2.5,0.3-4.8,0.9-7c1.1-4.1,3.3-7.8,6.5-11l1.8-1.6c2.6-2.2,5.4-3.7,8.5-4.7
		h-0.1L964.1,339.7"/>
</g>
<g>
	<path class="st10" d="M964.1,412.1l3.6-0.2c3.5,0,6.8,0.6,9.8,1.8c3,1.2,5.8,3.1,8.3,5.7l2.7,3l0.3,0.3c3.1,4.2,4.6,9.1,4.6,14.7
		c0,1.9-0.2,3.7-0.5,5.5c-0.7,3.4-2.1,6.4-4.1,9.3l-0.3,0.3l-2.7,3c-5,5-11,7.5-18,7.5l-6.9-0.8c-4.2-1.1-7.9-3.3-11.3-6.6
		c-3.1-3.1-5.2-6.5-6.3-10.4c-0.7-2.4-1-5-1-7.7c0-7.1,2.5-13.1,7.4-18c2.5-2.5,5.3-4.4,8.4-5.7
		C959.8,412.9,961.9,412.4,964.1,412.1"/>
</g>
<g>
	<path class="st11" d="M1057.9,434.6c-1.6-0.9-2.2-2.1-1.9-3.7c0.8-1.9,2.4-2.8,4.9-2.5l0.6,0.2c3.5,1.9,7.3,3.1,11.4,3.6
		c5.5,0.6,10.6-0.2,15.3-2.4l-5.1,3.3l-2.3,1c-6.1,2.5-12.3,2.9-18.8,1.3l-1.6-0.3C1059.6,435.2,1058.7,435,1057.9,434.6"/>
</g>
<g>
	<path class="st12" d="M1057.9,434.6c0.8,0.4,1.6,0.6,2.5,0.7l1.6,0.3c6.5,1.6,12.7,1.2,18.8-1.3l2.3-1l5.1-3.3
		c-4.8,2.2-9.9,3-15.3,2.4c-4.1-0.5-7.9-1.7-11.4-3.6l-0.6-0.2c-2.4-0.2-4.1,0.6-4.9,2.5C1055.7,432.5,1056.3,433.8,1057.9,434.6"/>
</g>
<g>
	<path class="st12" d="M1061.2,437.4l-2.1-0.3c-1.1,0-2.1-0.3-3.1-0.9c-2.1-1.3-2.9-3.3-2.6-5.9c0.9-3.3,2.8-4.9,5.9-4.7
		c0.3,0,0.6,0.1,0.8,0.3c4.5,2.9,9.3,4.6,14.4,5c6.8,0.5,13.2-1.3,19-5.3l-6.1,6.1l-2.9,1.9C1077.2,438.3,1069.4,439.6,1061.2,437.4
		"/>
</g>
<g>
	<path class="st13" d="M790.2-48.4L790.2-48.4l0.1,67.7h-0.1h-12c-8.2,0-13.7,2.8-16.7,8.4c-1.6,3.1-2.5,7.1-2.5,12v24H502.4V32.7
		c0-13.6-6.4-20.3-19.1-20.3H465v-119h22.6c12.7,0,19.1-6.8,19.1-20.4v-20.4h133.8L754-103.4h-0.2v34.6c0,13.6,6.4,20.4,19.2,20.4
		H790.2"/>
</g>
<g>
	<path class="st2" d="M753.9-103.4l33.9,13.2l2.5,0.8v41H773c-12.8,0-19.2-6.8-19.2-20.4V-103.4"/>
</g>
<g>
	<path class="st2" d="M790.2,19.3v31.8c0,8.4-3.9,12.6-11.8,12.6h-19.4v-24c0-4.9,0.8-8.9,2.5-12c3-5.6,8.5-8.4,16.7-8.4H790.2"/>
</g>
<g>
	<path class="st2" d="M502.4,63.6h-25.8c-7.8,0-11.8-4.2-11.8-12.6v-185.9l0.1-2c0.6-7,4.5-10.5,11.7-10.5h30.2v20.4
		c0,13.6-6.4,20.4-19.1,20.4H465v119h18.3c12.7,0,19.1,6.8,19.1,20.3V63.6"/>
</g>
<g>
	<path class="st14" d="M1097.9,264c12.7,12.7,19,28,19,46c0,18-6.3,33.3-19,46c-12.7,12.7-28,19-46,19c-6.8,0-13.2-0.9-19.3-2.8
		c-3-0.9-5.9-2-8.7-3.3c-6.5-3.1-12.5-7.4-18-12.9c-12.7-12.7-19-28-19-46c0-17.9,6.3-33.3,19-46c12.7-12.7,28-19,46-19
		C1069.9,244.9,1085.2,251.3,1097.9,264"/>
</g>
<g>
	<path class="st14" d="M992.4,467.7l0.2-0.1c6.4-2.9,13.2-4.7,20.4-5.6l3.9-0.4l5.8-0.2l2.2,0l5.2,0.3h50.9c11,0,16.5,5.5,16.5,16.5
		v85.7l-0.1,3.1v30c0,3.1-1.1,5.7-3.3,7.9c-2.2,2.1-4.8,3.2-7.8,3.2c-3,0-5.6-1.1-7.8-3.2c-2.2-2.2-3.3-4.8-3.3-7.9v-2.5h-8.5h-0.6
		c-12.5,9.4-27,14.1-43.5,14.1c-20.3,0-37.7-7.2-52-21.5c-4.3-4.2-7.9-8.7-10.9-13.5c-6.4-10.2-9.9-21.7-10.5-34.3V531l0-0.9
		c0.7-12.3,4.2-23.5,10.5-33.5c3-4.8,6.6-9.3,10.9-13.6c5-5,10.4-9.2,16.1-12.4C988.6,469.5,990.5,468.6,992.4,467.7"/>
</g>
<g>
	<polyline class="st3" points="587.1,113.3 621.1,147.2 621.1,195.3 587.1,229.2 539.1,229.2 505.1,195.2 505.1,147.2 539.1,113.2 
		587.1,113.3 	"/>
</g>
<g>
	<polyline class="st3" points="586.6,114.3 539.6,114.3 506.3,147.6 506.3,194.6 539.5,228 586.6,228 619.8,194.7 619.9,147.6 
		586.6,114.3 	"/>
</g>
<g>
	<polyline class="st3" points="800.4,418.7 769.8,418.8 747.8,452 747.8,462.8 747.8,462.8 747.9,550.7 748,550.7 748,565.9 
		769.2,597.8 768.6,597.8 746.6,564.7 746.6,549.5 746.5,549.5 746.4,461.6 746.5,461.6 746.5,450.8 768.5,417.6 799.6,417.5 
		800.4,418.7 	"/>
</g>
<g>
	<polyline class="st3" points="1019.4,202.8 1019.3,228.3 1006.3,228.3 1006.3,202.8 1019.4,202.8 	"/>
</g>
<g>
	<polyline class="st3" points="1090.8,228.9 1090.9,202.7 1103.9,202.7 1103.9,228.9 1090.8,228.9 	"/>
</g>
<g>
	<polyline class="st3" points="1056.9,104.8 1056.8,141 1043.8,141 1043.8,104.8 1056.9,104.8 	"/>
</g>
<g>
	<polyline class="st3" points="1103.7,147.5 1103.6,185.9 1090.6,185.9 1090.6,147.5 1103.7,147.5 	"/>
</g>
<g>
	<polyline class="st3" points="938.3,274.6 967.3,274.6 967.1,327.1 938.2,327.1 938.3,274.6 	"/>
</g>
<g>
	<polyline class="st3" points="1019.4,138 1019.3,197.1 1006.3,197.1 1006.3,138 1019.4,138 	"/>
</g>
<g>
	<polyline class="st3" points="938.1,392.4 925,392.4 925.1,339.9 938.1,339.9 938.1,392.4 	"/>
</g>
<g>
	<polyline class="st3" points="925,456 925.1,417.6 938.1,417.6 938.1,456 925,456 	"/>
</g>
<g>
	<polyline class="st3" points="1033.1,387.1 1046.2,387.1 1046.1,417.8 1033.1,417.8 1033.1,387.1 	"/>
</g>
<g>
	<polyline class="st3" points="307.9,-35.3 307.9,-49.1 334.6,-49.1 334.6,-35.3 307.9,-35.3 	"/>
</g>
<g>
	<polyline class="st3" points="300,-35.3 249.2,-35.3 249.2,-49.1 300,-49.1 300,-35.3 	"/>
</g>
<g>
	<polyline class="st3" points="341.4,-49.1 392.2,-49.1 392.2,-35.3 341.4,-35.3 341.4,-49.1 	"/>
</g>
<g>
	<polyline class="st3" points="303.8,-53.9 163.8,-53.9 163.8,-73.9 303.8,-73.9 303.8,-53.9 	"/>
</g>
<g>
	<polyline class="st3" points="240.9,-35.3 179.4,-35.3 179.4,-49.1 240.9,-49.1 240.9,-35.3 	"/>
</g>
<g>
	<polyline class="st3" points="448.5,-24.1 399.7,-24.1 399.7,-49.1 448.5,-49.1 448.5,-24.1 	"/>
</g>
<g>
	<polyline class="st3" points="167.2,-24.1 103.5,-24.1 103.5,-49.1 167.2,-49.1 167.2,-24.1 	"/>
</g>
<g>
	<polyline class="st3" points="52.6,-49.1 87,-49.1 87,-36.2 52.6,-36.2 52.6,-49.1 	"/>
</g>
<g>
	<polyline class="st3" points="58.9,253.8 52.2,253.8 52.2,223.6 109.9,223.6 109.9,253.6 101.6,253.6 101.6,266.5 58.9,266.5 
		58.9,253.8 	"/>
</g>
<g>
	<polyline class="st3" points="-66.8,213 -66.8,238 -52.7,238 -52.7,263.7 -66,263.7 -66,316.8 -52.7,316.8 -52.7,342.5 
		-65.2,342.5 -65.2,361.3 -84.7,361.3 -84.7,318.3 -94.8,318.3 -94.8,259 -84.7,259 -84.7,213 -66.8,213 	"/>
</g>
<g>
	<polyline class="st3" points="118.1,264.9 118.1,218.9 129.8,218.9 129.8,264.9 118.1,264.9 	"/>
</g>
<g>
	<polyline class="st3" points="38.7,219.1 38.7,270.6 27,270.6 27,219.1 38.7,219.1 	"/>
</g>
<g>
	<path class="st3" d="M-63,410h21.5v-4.4h10.6v34.1c-4.6,0.8-8.6,2.9-12.1,6.4c-4.4,4.4-6.7,9.8-6.7,16.1c0,5,1.4,9.4,4.2,13.2v12.8
		h-18V479h7.3v-13.8h-3v1.8h-10.5v-7.6h6.7V410"/>
</g>
<g>
	<polyline class="st3" points="11.9,278.5 11.9,274.2 120.8,274.2 120.8,325.1 174.6,325 174.6,329.1 172.7,329.1 172.7,329.3 
		120.8,329.4 120.8,386.2 133.3,386.2 133.2,467.3 120.8,467.4 120.8,479.2 116.4,479.2 116.5,278.5 11.9,278.5 	"/>
</g>
<g>
	<path class="st3" d="M-38.8,440.3l-1.3,0.7c-4,2.2-7.1,5.2-9.3,8.9c2.1-3.7,5.2-6.7,9.3-8.9L-38.8,440.3"/>
</g>
<g>
	<polyline class="st3" points="-53.7,447.5 -49.4,449.9 -53.7,447.5 	"/>
</g>
<g>
	<path class="st3" d="M-49.4,449.9c-1,1.7-1.8,3.6-2.4,5.7c-0.7,2.6-1.1,5.1-1,7.6c-0.1-2.5,0.3-5,1-7.6
		C-51.2,453.5-50.4,451.7-49.4,449.9"/>
</g>
<g>
	<polyline class="st3" points="-57.8,463.2 -52.8,463.2 -57.8,463.2 	"/>
</g>
<g>
	<path class="st3" d="M-52.8,463.2c0.1,3.8,1.1,7.5,3.1,11l1.5,2.7l-1.5-2.7C-51.7,470.6-52.7,467-52.8,463.2"/>
</g>
<g>
	<polyline class="st3" points="-42.2,435.9 -39.7,440.3 -42.2,435.9 	"/>
</g>
<g>
	<polyline class="st3" points="-53.6,478.9 -49.2,476.4 -53.6,478.9 	"/>
</g>
<g>
	<polyline class="st3" points="9.1,412.2 22.1,412.2 22.1,444.7 9.1,444.7 9.1,412.2 	"/>
</g>
<g>
	<polyline class="st3" points="-84.3,460.8 -71.8,460.8 -71.8,488.1 -84.3,488.1 -84.3,460.8 	"/>
</g>
<g>
	<polyline class="st3" points="118,276.8 14.5,276.8 118,276.8 	"/>
</g>
<g>
	<polyline class="st3" points="173.3,327 120.5,327.1 173.3,327 	"/>
</g>
<g>
	<polyline class="st3" points="118.3,277.6 118.2,477.6 118.3,277.6 	"/>
</g>
<g>
	<path class="st3" d="M-50.9,530.1l5.1,5.7c-0.8,0.7-1.7,1.5-2.5,2.3c-5.3,5.3-7.9,11.7-7.9,19.2c0,7.6,2.7,14,7.9,19.3l2.6,2.3
		l-5.9,5.6l5.9-5.6l-2.6-2.3c-5.3-5.3-7.9-11.7-7.9-19.3c0-7.5,2.7-13.9,7.9-19.2c0.8-0.8,1.6-1.5,2.5-2.3L-50.9,530.1"/>
</g>
<g>
	<path class="st3" d="M-48.7,527.1L-48.7,527.1L-48.7,527.1v0.6h0.5l7.2,7.2v0.6l-0.4,0.3c-1.4,0.9-2.7,2-3.9,3.3
		c-5,5-7.6,11-7.6,18.1c0,7.1,2.5,13.1,7.6,18.2l0.1,0.1l0.3,0.4c1.3,1.2,2.6,2.3,3.9,3.3v0.1l-7.5,7.5h-0.1v0.1l-0.1,0.1l0.1,0.1
		v14.6h-12.5v-24.7h-14.3v-39.5h14.4l0-43h12.4L-48.7,527.1"/>
</g>
<g>
	<polyline class="st3" points="-64.4,557.6 -56.8,557.6 -64.4,557.6 	"/>
</g>
<g>
	<path class="st15" d="M135.3,330.4l43.7,0v230.8l-43.7,0V330.4"/>
</g>
<g>
	<path class="st5" d="M997.5-11.3c0-8.9,5-13.3,14.9-13.3h101.2c5.7,0,9.8,1.5,12.3,4.5l0.2,0.3c1.6,2.1,2.4,5,2.4,8.6v91.1
		c0,4.7-1.4,8.1-4.1,10.3c-2.5,2-6.1,3-10.8,3h-101.2c-4.7,0-8.3-1-10.8-3c-0.9-0.7-1.6-1.5-2.2-2.5l-0.6-1
		c-0.9-1.9-1.4-4.2-1.4-6.9V-11.3"/>
</g>
<g>
	<path class="st5" d="M1122.3-19.1c-2.4-2.3-6.1-3.4-11-3.4H1014c-9.5,0-14.3,4.3-14.3,12.8v87.5c0,2.5,0.4,4.7,1.3,6.6l0.6,0.9
		l2,2.3c1.2,1.2,2.8,2.1,4.8,2.6l5.9,0.7h97.2l6-0.7c5.5-1.5,8.3-5.6,8.3-12.1V-9.4c0-3.5-0.8-6.2-2.3-8.3l-0.2-0.3L1122.3-19.1"/>
</g>
<g>
	<polyline class="st5" points="113.6,282.6 113.6,568.2 25.5,568.2 25.5,282.6 113.6,282.6 	"/>
</g>
<g>
	<path class="st7" d="M586.6,114.3l33.3,33.3l0,47.1L586.6,228h-47l-33.3-33.3v-47.1l33.3-33.3L586.6,114.3"/>
</g>
<g>
	<path class="st8" d="M769.2,597.8l-21.2-32v-15.2h-0.1l-0.1-87.9h0V452l22-33.3l30.5-0.1h0.5l22.1,33.2l0,113.8l-22,33.3l-31.1,0
		L769.2,597.8"/>
</g>
<g>
	<path class="st11" d="M680-57.2c3,3.1,4.8,6.6,5.3,10.6l0.1,2.1c0,5.1-1.8,9.4-5.3,13c-3.6,3.6-7.9,5.4-13,5.4
		c-5,0-9.2-1.8-12.8-5.4c-3.6-3.6-5.4-7.9-5.4-13c0-5,1.8-9.3,5.4-12.8c3.6-3.6,7.8-5.4,12.8-5.4h0.5
		C672.4-62.5,676.5-60.6,680-57.2"/>
</g>
<g>
	<path class="st11" d="M548.2-71.6c1.1,2,1.8,4.3,2.1,6.7l0.1,2.1c0,2.8-0.5,5.4-1.7,7.7l-0.6,1.1c-0.8,1.4-1.9,2.8-3.2,4.1
		c-3.5,3.6-7.8,5.4-12.9,5.4c-5,0-9.3-1.8-12.8-5.4c-1.6-1.6-2.8-3.3-3.7-5.2c-1.1-2.3-1.6-4.9-1.6-7.7c0-5,1.8-9.3,5.3-12.9
		c3.5-3.6,7.8-5.3,12.8-5.3h0.4c4.9,0.1,9.1,1.9,12.5,5.3C546.3-74.4,547.4-73,548.2-71.6"/>
</g>
<g>
	<polyline class="st11" points="1033.5,276.2 1031.8,277.2 1026.8,268.5 1028.5,267.5 1033.5,276.2 	"/>
</g>
<g>
	<polyline class="st11" points="1052.9,271.6 1050.9,271.6 1050.9,261.6 1052.9,261.6 1052.9,271.6 	"/>
</g>
<g>
	<polyline class="st11" points="1094.3,286.5 1085.6,291.5 1084.6,289.8 1093.3,284.8 1094.3,286.5 	"/>
</g>
<g>
	<polyline class="st11" points="1071.9,277.2 1070.2,276.2 1075.2,267.5 1076.9,268.5 1071.9,277.2 	"/>
</g>
<g>
	<polyline class="st11" points="1010.5,284.9 1019.2,289.9 1018.2,291.6 1009.5,286.6 1010.5,284.9 	"/>
</g>
<g>
	<polyline class="st11" points="1003.6,309 1013.6,309 1013.6,311 1003.6,311 1003.6,309 	"/>
</g>
<g>
	<polyline class="st11" points="1009.5,333.3 1018.2,328.3 1019.2,330 1010.5,335 1009.5,333.3 	"/>
</g>
<g>
	<polyline class="st11" points="1100.3,310.9 1090.3,310.9 1090.3,308.9 1100.3,308.9 1100.3,310.9 	"/>
</g>
<g>
	<polyline class="st11" points="1085.6,328.2 1094.3,333.2 1093.3,334.9 1084.6,329.9 1085.6,328.2 	"/>
</g>
<g>
	<polyline class="st11" points="1053,358.3 1051,358.3 1051,348.3 1053,348.3 1053,358.3 	"/>
</g>
<g>
	<polyline class="st11" points="1028.6,352.3 1026.9,351.3 1031.9,342.6 1033.6,343.6 1028.6,352.3 	"/>
</g>
<g>
	<polyline class="st11" points="1070.3,343.6 1072,342.6 1077,351.3 1075.3,352.3 1070.3,343.6 	"/>
</g>
<g>
	<path class="st11" d="M1028.8,484.5h1v5.7c7.4,0.1,14,1.9,20,5.3l2.8-4.9l0.8,0.5l-2.8,4.8c2.9,1.8,5.6,4,8.1,6.5
		c2.6,2.6,4.7,5.4,6.4,8.3l4.9-2.8l0.5,0.8l-4.9,2.8v0l-1.5,0.8l-0.6-0.8c-1.7-2.7-3.7-5.3-6.1-7.8c-2.4-2.4-4.9-4.4-7.6-6l-1-0.7
		c-5.7-3.2-12-4.9-18.9-5.1h-0.8h-0.4c-6.9,0.1-13.2,1.8-18.9,5c-0.4,0.2-0.7,0.4-1,0.6c-2.8,1.7-5.4,3.8-7.8,6.2
		c-2.4,2.4-4.4,4.9-6.1,7.6l-0.7,1.1c-1.6,2.9-2.9,6-3.7,9.3l-0.8,3.4c-0.3,2-0.5,4.1-0.5,6.3v0.7v0.6c0.1,5,1,9.7,2.7,14.1l0.5,1.2
		l1.8,3.6l0.7,1.1c1.6,2.7,3.7,5.2,6.1,7.6c2.4,2.4,5,4.5,7.8,6.1l1.1,0.6c5.7,3.2,12,4.8,18.9,5h0.4h0.8c6.9-0.2,13.2-1.9,18.9-5.1
		l1-0.7c2.7-1.6,5.2-3.6,7.6-6c2.4-2.4,4.5-5,6.1-7.8l0.6-0.9l1.4,0.8h0.1v0l4.9,2.8l-0.5,0.8l-4.9-2.9c-1.7,2.9-3.9,5.6-6.4,8.2
		c-2.5,2.5-5.3,4.7-8.2,6.4l2.8,5l-0.8,0.5l-2.8-5c-6,3.4-12.6,5.2-19.9,5.3v5.8h-1v-5.8c-7.4-0.1-14-1.8-20-5.2l-2.8,4.9l-0.8-0.5
		l2.8-4.9c-2.9-1.8-5.6-3.9-8.2-6.5c-2.6-2.6-4.7-5.3-6.4-8.2l-4.9,2.8l-0.4-0.8l4.9-2.8l-0.6-0.9l-2.2-4.8c-1.3-3.5-2.2-7.2-2.5-11
		l-0.1-3.2h-5.8v-0.9h5.8l0.1-3.3c0.1-1.1,0.2-2.1,0.3-3.2l0.7-3.4c0.9-3.6,2.2-7,4.1-10.2l-4.8-2.8l0.4-0.8l4.8,2.8
		c1.8-2.9,3.9-5.6,6.5-8.2c2.5-2.5,5.3-4.7,8.2-6.5l-2.8-4.8l0.8-0.5l2.8,4.9c6-3.4,12.7-5.2,20-5.3V484.5"/>
</g>
<g>
	<path class="st16" d="M6.3,123.6l-2-1.3C1.4,120,0,116.6,0,112.1V13.8C0,4.6,6.1,0,18.2,0h280c5.3,0,9.4,0.9,12.4,2.6l1,0.6
		c-3-1.6-7-2.4-12.1-2.4h-280C7.4,0.8,1.3,5.4,1.3,14.6v98.3c0,4.4,1.4,7.8,4.3,10.1L6.3,123.6"/>
</g>
<g>
	<path class="st16" d="M796.2,86.7c-1-1.2-1.7-2.7-2.1-4.4c-0.3-1.2-0.4-2.5-0.4-3.9v-93.8c0-1.4,0.1-2.7,0.4-3.9
		c0.6-2.5,1.8-4.5,3.6-6c2.2-1.7,5.3-2.7,9.3-2.9h1.6h145h1.7c6,0.3,9.9,2.4,11.9,6.2c-2.4-3-6.6-4.5-12.5-4.5H809.7
		c-5.6,0-9.6,1.3-12,4c-1.9,2.1-2.9,5.1-2.9,8.9v93.8C794.8,82.8,795.3,85,796.2,86.7"/>
</g>
<g>
	<path class="st16" d="M977.4,90.9l-0.6-0.8l-0.8-1.2c-0.5-1-0.8-2.1-1-3.4V-18.6c0.3-1.8,0.9-3.3,1.8-4.6c2.3-3.5,6.6-5.2,12.8-5.2
		h144.9c5.9,0,10,1.6,12.5,4.7l0.6,0.9c-2.5-3-6.6-4.5-12.3-4.5H990.4c-7,0-11.5,2.2-13.6,6.6c-0.4,0.8-0.7,1.8-0.9,2.8v87.5h-0.3
		v-85.4v-0.2l-0.1,2.1v83.7h0.1v15.1l-0.1-0.3l0.1,0.9c0.2,1.7,0.6,3.3,1.3,4.6l0.1,0.1L977.4,90.9"/>
</g>
<g>
	<path class="st0" d="M796.2,86.7c-0.9-1.8-1.4-4-1.4-6.6v-93.8c0-3.8,1-6.7,2.9-8.9c2.4-2.6,6.4-4,12-4h144.9
		c5.9,0,10.1,1.5,12.5,4.5c1.6,2,2.4,4.8,2.4,8.3v93.8c0,4.7-1.5,8.1-4.4,10.2c-1.6,1.1-3.6,1.9-6,2.3l-4.5,0.3H809.7
		c-5.6,0-9.6-1.3-12-4C797.1,88.3,796.6,87.6,796.2,86.7"/>
</g>
<g>
	<path class="st0" d="M997.5-11.3v91.1c0,2.7,0.5,5,1.4,6.9l0.6,1c0.6,1,1.3,1.8,2.2,2.5c2.4,2,6,3,10.8,3h101.2c4.7,0,8.3-1,10.8-3
		c2.7-2.2,4.1-5.6,4.1-10.3v-91.1c0-3.6-0.8-6.5-2.4-8.6l-0.2-0.3c-2.5-3-6.6-4.5-12.3-4.5h-101.2
		C1002.5-24.6,997.5-20.1,997.5-11.3"/>
</g>
<g>
	<path class="st0" d="M977.4,90.9l-0.4-0.8l-0.1-0.1c-0.7-1.4-1.1-2.9-1.3-4.6l-0.1-0.9l0.1,0.3V69.7h-0.1V-14l0.1-2.1v0.2v85.4h0.3
		v-87.5c0.2-1,0.5-1.9,0.9-2.8c2.1-4.4,6.6-6.6,13.6-6.6h144.9c5.7,0,9.8,1.5,12.3,4.5l0.2,0.3c1.6,2.1,2.4,5,2.4,8.6v97.1
		c0,2.7-0.5,5.1-1.4,7c-2.1,4.2-6.6,6.3-13.5,6.3H990.4C984,96.4,979.7,94.6,977.4,90.9"/>
</g>
<g>
	<path class="st0" d="M1003.6,87.5l-2-2.3l-0.6-0.9c-0.9-1.9-1.3-4.1-1.3-6.6V-9.7c0-8.5,4.8-12.8,14.3-12.8h97.2
		c4.9,0,8.6,1.1,11,3.4c-2.4-2-6-3-10.6-3h-97.2c-9.5,0-14.3,4.3-14.3,12.8v87.4c0,2.6,0.4,4.8,1.3,6.6l0.5,0.9
		C1002.5,86.3,1003,87,1003.6,87.5"/>
</g>
<g>
	<path class="st17" d="M1003.6,87.5c-0.6-0.6-1.2-1.2-1.6-2l-0.5-0.9c-0.9-1.8-1.3-4-1.3-6.6V-9.4c0-8.5,4.8-12.8,14.3-12.8h97.2
		c4.6,0,8.2,1,10.6,3l1.2,1.2l0.2,0.3c1.6,2,2.3,4.8,2.3,8.3v87.4c0,6.5-2.8,10.5-8.3,12.1l-6,0.7h-97.2l-5.9-0.7
		C1006.5,89.6,1004.9,88.7,1003.6,87.5"/>
</g>
<g>
	<path class="st18" d="M299.8,4.6c2.8,0.2,5.2,0.8,7.2,1.7l1.6,0.8l1.4,1l1.1,1c-0.6-0.8-1.2-1.5-2-2.1l-1-0.6L307.8,6
		c-3-1.7-7.1-2.6-12.4-2.6H60C48,3.4,41.9,8,41.9,17.2v0.6h-0.5v0.1h0v4.4l0,2.9v0.7v8.6h0.2c0.2,1.9,0.7,3.6,1.3,5.1
		c0.5,1.5,1.1,2.9,2,4c2.4,3.3,6.3,4.9,11.7,4.9H146c7.1,0,12.4,1.4,15.8,4.1l0.9,0.8l0.3,0.3c1,1.1,1.8,2.3,2.4,3.7
		c0.5,1.7,0.8,3.6,0.8,5.8v38.8h-0.1v4l0.1,1.9v2.1h0.3c0.2,2,0.7,3.8,1.3,5.4c0.5,1.4,1.2,2.7,2,3.8c2.5,3.2,6.4,4.9,11.7,4.9
		h114.3c12.1,0,18.2-4.6,18.2-13.9V18.2c0-3.9-1.1-7-3.3-9.2l-1.1-1l-1.4-1l-1.6-0.8C304.7,5.4,302.5,4.8,299.8,4.6"/>
</g>
<g>
	<path class="st18" d="M311.2,3.2l0.3,0.2l1.6,1.1c2.8,2.3,4.3,5.7,4.3,10.1v98.3c0,6.9-3.4,11.2-10.2,13l-8,0.8h-280l-8-0.8
		c-2.1-0.5-3.9-1.3-5.3-2.4l-0.7-0.5c-2.8-2.3-4.3-5.7-4.3-10.1V14.6C1,5.4,7,0.8,19.2,0.8h280C304.2,0.8,308.2,1.6,311.2,3.2"/>
</g>
<g>
	<path class="st19" d="M-49.4,450.7c-0.1,0-0.3,0-0.4-0.1c-0.4-0.2-0.5-0.7-0.3-1c2.2-3.8,5.4-6.9,9.5-9.2l1.4-0.7
		c0.4-0.2,0.8,0,1,0.3c0.2,0.4,0,0.8-0.3,1l-1.4,0.7c-3.9,2.1-6.9,5-8.9,8.6C-48.9,450.5-49.1,450.7-49.4,450.7z"/>
</g>
<g>
	<path class="st19" d="M-52.8,463.9c-0.4,0-0.7-0.3-0.7-0.7c-0.1-2.5,0.3-5.2,1-7.8c0.6-2.1,1.4-4,2.5-5.8c0.2-0.4,0.7-0.5,1-0.3
		c0.4,0.2,0.5,0.7,0.3,1c-1,1.7-1.8,3.5-2.3,5.5c-0.7,2.5-1,5-1,7.4C-52,463.6-52.3,463.9-52.8,463.9
		C-52.8,463.9-52.8,463.9-52.8,463.9z"/>
</g>
<g>
	<path class="st19" d="M-48.2,477.6c-0.3,0-0.5-0.1-0.7-0.4l-1.5-2.6c-2.1-3.6-3.1-7.4-3.2-11.4c0-0.4,0.3-0.8,0.7-0.8
		c0.4,0,0.8,0.3,0.8,0.7c0.1,3.7,1.1,7.2,3,10.6l1.5,2.6c0.2,0.4,0.1,0.8-0.3,1C-47.9,477.5-48,477.6-48.2,477.6z"/>
</g>
<g>
	<path class="st19" d="M-51.5,585.2c-0.2,0-0.4-0.1-0.5-0.2c-0.3-0.3-0.3-0.8,0-1.1l5.3-5.1l-2-1.8c-5.5-5.5-8.2-12.1-8.2-19.9
		c0-7.7,2.7-14.3,8.2-19.7c0.6-0.6,1.3-1.2,1.9-1.8l-4.6-5.1c-0.3-0.3-0.2-0.8,0.1-1.1c0.3-0.3,0.8-0.3,1.1,0.1l5.1,5.7
		c0.1,0.2,0.2,0.4,0.2,0.6c0,0.2-0.1,0.4-0.3,0.5c-0.8,0.7-1.6,1.4-2.4,2.2c-5.1,5.1-7.7,11.4-7.7,18.7c0,7.3,2.6,13.6,7.7,18.8
		l2.6,2.3c0.2,0.1,0.2,0.3,0.3,0.5c0,0.2-0.1,0.4-0.2,0.6L-51,585C-51.1,585.2-51.3,585.2-51.5,585.2z"/>
</g>
<g>
	<path class="st19" d="M-56.8,558.4h-7.6c-0.4,0-0.8-0.3-0.8-0.8s0.3-0.8,0.8-0.8h7.6c0.4,0,0.8,0.3,0.8,0.8S-56.4,558.4-56.8,558.4
		z"/>
</g>
<g>
	<path class="st19" d="M120.5,328.1c-0.6,0-1-0.4-1-1c0-0.6,0.4-1,1-1l52.7-0.1c0,0,0,0,0,0c0.6,0,1,0.4,1,1c0,0.6-0.4,1-1,1
		L120.5,328.1C120.5,328.1,120.5,328.1,120.5,328.1z"/>
</g>
<g>
	<path class="st19" d="M118,277.8H14.5c-0.6,0-1-0.4-1-1s0.4-1,1-1H118c0.6,0,1,0.4,1,1S118.6,277.8,118,277.8z"/>
</g>
<g>
	<path class="st19" d="M118.2,478.6C118.2,478.6,118.2,478.6,118.2,478.6c-0.6,0-1-0.4-1-1l0-200c0-0.6,0.4-1,1-1c0,0,0,0,0,0
		c0.6,0,1,0.4,1,1l0,200C119.2,478.1,118.8,478.6,118.2,478.6z"/>
</g>
<g>
	<path class="st19" d="M1078.9,527.9c-0.6,0-1-0.4-1-1v-9.3l0,0.1c-0.1,0.5-0.7,0.9-1.2,0.7c-0.5-0.1-0.9-0.7-0.7-1.2l1.8-6.9
		c0.1-0.4,0.4-0.7,0.8-0.7c0.4-0.1,0.8,0.1,1,0.5l0.2,0.3c0.1,0.2,0.1,0.3,0.1,0.5v16.1C1079.9,527.5,1079.5,527.9,1078.9,527.9z"/>
</g>
<g>
	<path class="st19" d="M1080.8,518.6c-0.4,0-0.8-0.3-1-0.7l-1.8-6.7c-0.1-0.5,0.2-1.1,0.7-1.2c0.5-0.1,1.1,0.2,1.2,0.7l1.8,6.7
		c0.1,0.5-0.2,1.1-0.7,1.2C1081,518.6,1080.9,518.6,1080.8,518.6z"/>
</g>
<g>
	<path class="st19" d="M1078.9,554c-0.3,0-0.7-0.2-0.9-0.5l-0.2-0.3c-0.1-0.2-0.1-0.3-0.1-0.5v-16c0-0.6,0.4-1,1-1s1,0.4,1,1v9.3
		l0-0.1c0.1-0.5,0.7-0.9,1.2-0.7c0.5,0.1,0.9,0.7,0.7,1.2l-1.8,6.9c-0.1,0.4-0.4,0.7-0.8,0.7C1079,554,1079,554,1078.9,554z"/>
</g>
<g>
	<path class="st19" d="M1078.8,553.8c-0.4,0-0.8-0.3-1-0.7l-1.8-6.7c-0.1-0.5,0.2-1.1,0.7-1.2c0.5-0.1,1.1,0.2,1.2,0.7l1.8,6.7
		c0.1,0.5-0.2,1.1-0.7,1.2C1079,553.8,1078.9,553.8,1078.8,553.8z"/>
</g>
<g>
	<path class="st19" d="M779.9,173.5c-0.2,0-0.5-0.1-0.7-0.2c-0.7-0.4-1-1.3-0.7-2l1.4-2.9c1.2-2.2,2.5-4.3,4.1-6.2
		c0.5-0.6,1.5-0.7,2.1-0.2c0.6,0.5,0.7,1.5,0.2,2.1c-1.4,1.8-2.7,3.7-3.7,5.7l-1.4,2.9C781,173.2,780.5,173.5,779.9,173.5z"/>
</g>
<g>
	<path class="st19" d="M777.4,195c-0.8,0-1.4-0.6-1.5-1.4l-0.4-4.8h-12.7c-0.8,0-1.5-0.7-1.5-1.5s0.7-1.5,1.5-1.5h14.1
		c0.8,0,1.5,0.7,1.5,1.5l0,1.3l0.4,4.7c0.1,0.8-0.5,1.6-1.4,1.6C777.5,195,777.4,195,777.4,195z"/>
</g>
<g>
	<path class="st19" d="M776.9,188.8c-0.8,0-1.5-0.7-1.5-1.5c0-2.5,0.2-4.9,0.7-7.2c0.2-0.8,1-1.3,1.8-1.2c0.8,0.2,1.3,1,1.2,1.8
		c-0.4,2.1-0.7,4.3-0.7,6.5C778.4,188.1,777.8,188.8,776.9,188.8z"/>
</g>
<g>
	<path class="st19" d="M791.5,158.3c-0.4,0-0.8-0.2-1.1-0.5c-0.5-0.6-0.5-1.6,0.1-2.1c1.1-1,2.2-1.8,3.4-2.7l-6.2-10.7
		c-0.4-0.7-0.2-1.6,0.5-2c0.7-0.4,1.6-0.2,2,0.5l6.9,11.9c0.4,0.7,0.2,1.6-0.5,2c-1.5,0.9-2.9,2-4.2,3.1
		C792.2,158.2,791.9,158.3,791.5,158.3z"/>
</g>
<g>
	<path class="st19" d="M796,155c-0.5,0-1-0.3-1.3-0.8c-0.4-0.7-0.2-1.6,0.6-2c1.7-1,3.4-1.8,5.1-2.6c0.8-0.3,1.6,0,2,0.8
		c0.3,0.8,0,1.6-0.8,2c-1.6,0.7-3.3,1.6-4.9,2.5C796.5,155,796.2,155,796,155z"/>
</g>
<g>
	<path class="st19" d="M788.1,234.9c-0.3,0-0.5-0.1-0.8-0.2c-0.7-0.4-1-1.3-0.5-2.1l7.2-12.3c0.2-0.4,0.6-0.6,1-0.7
		c0.4-0.1,0.8,0,1.2,0.2l0.9,0.6l4,2.1c0.7,0.4,1,1.3,0.6,2c-0.4,0.7-1.3,1-2,0.6l-3.8-2l-6.4,11
		C789.1,234.6,788.6,234.9,788.1,234.9z"/>
</g>
<g>
	<path class="st19" d="M795.3,222.5c-0.3,0-0.5-0.1-0.8-0.2l-0.4-0.3c0,0-0.1-0.1-0.1-0.1l-4.6-3.5c-0.7-0.5-0.8-1.4-0.3-2.1
		c0.5-0.7,1.4-0.8,2.1-0.3l4.9,3.7c0.7,0.4,0.9,1.4,0.5,2.1C796.3,222.3,795.8,222.5,795.3,222.5z"/>
</g>
<g>
	<path class="st19" d="M769.1,215.1c-0.5,0-1-0.3-1.3-0.8c-0.4-0.7-0.2-1.6,0.6-2l12.5-7.1c0.7-0.4,1.6-0.2,2,0.5l1,1.6
		c0.5,0.9,1,1.6,1.6,2.3c0.5,0.6,0.5,1.6-0.1,2.1c-0.6,0.5-1.6,0.5-2.1-0.1c-0.8-0.9-1.4-1.8-2-2.8l-0.2-0.4l-11.2,6.4
		C769.6,215,769.4,215.1,769.1,215.1z"/>
</g>
<g>
	<path class="st19" d="M781.6,208c-0.5,0-1.1-0.3-1.3-0.8c-0.8-1.6-1.6-3.2-2.2-4.8c-0.3-0.8,0.1-1.6,0.9-1.9
		c0.8-0.3,1.6,0.1,1.9,0.9c0.6,1.5,1.3,3,2,4.4c0.4,0.7,0.1,1.6-0.6,2C782.1,207.9,781.9,208,781.6,208z"/>
</g>
<g>
	<path class="st19" d="M781.7,168.9c-0.3,0-0.5-0.1-0.8-0.2l-12.2-7c-0.7-0.4-1-1.3-0.5-2.1c0.4-0.7,1.3-1,2.1-0.5l12.2,7
		c0.7,0.4,1,1.3,0.5,2.1C782.7,168.7,782.2,168.9,781.7,168.9z"/>
</g>
<g>
	<path class="st19" d="M781.8,342.8c-0.1,0-0.2,0-0.3,0c-0.8-0.2-1.3-1-1.1-1.8l1.3-5.8c0-0.1,0-0.1,0-0.1l0.5-1.4
		c0.9-2.9,2-5.6,3.3-8.2c0.4-0.7,1.3-1,2-0.7c0.7,0.4,1,1.3,0.7,2c-1.2,2.4-2.3,5.1-3.1,7.8l-0.4,1.3l-1.3,5.8
		C783.1,342.3,782.5,342.8,781.8,342.8z"/>
</g>
<g>
	<path class="st19" d="M790.7,318.9c-0.3,0-0.6-0.1-0.9-0.3c-0.7-0.5-0.8-1.4-0.3-2.1c0.9-1.1,1.8-2.1,2.9-3.1l0.6-0.6l-10.5-11.7
		c-0.6-0.6-0.5-1.6,0.1-2.1c0.6-0.6,1.6-0.5,2.1,0.1l11.5,12.8c0.5,0.6,0.5,1.6-0.1,2.1l-1.8,1.6c-0.9,0.8-1.8,1.8-2.5,2.7
		C791.6,318.7,791.1,318.9,790.7,318.9z"/>
</g>
<g>
	<path class="st19" d="M795.1,314.4c-0.4,0-0.8-0.2-1.1-0.5c-0.5-0.6-0.5-1.6,0.2-2.1c1.7-1.4,3.5-2.8,5.3-4
		c0.7-0.5,1.6-0.3,2.1,0.4c0.5,0.7,0.3,1.6-0.4,2.1c-1.7,1.2-3.4,2.4-5,3.8C795.8,314.3,795.5,314.4,795.1,314.4z"/>
</g>
<g>
	<path class="st19" d="M765.7,365.5c-0.6,0-1.2-0.4-1.4-1.1c-0.2-0.8,0.2-1.6,1-1.9l15.5-4.8c-0.4-1.7-0.8-3.4-1-5.1
		c-0.1-0.8,0.5-1.6,1.3-1.7c0.8-0.1,1.6,0.5,1.7,1.3c0.3,2.1,0.7,4.1,1.3,6.1c0.2,0.8-0.2,1.6-1,1.9l-16.9,5.2
		C766,365.5,765.9,365.5,765.7,365.5z"/>
</g>
<g>
	<path class="st19" d="M784.6,365.8c-0.6,0-1.1-0.3-1.4-0.9c-0.6-1.3-1.1-2.5-1.5-3.7l-0.6-2c-0.2-0.8,0.2-1.6,1-1.9
		c0.8-0.2,1.6,0.2,1.9,1l0.6,2c0.3,1.1,0.8,2.2,1.3,3.4c0.4,0.8,0,1.6-0.7,2C785.1,365.8,784.8,365.8,784.6,365.8z"/>
</g>
<g>
	<path class="st19" d="M802.2,387.6c-0.3,0-0.7-0.1-1-0.3l-4.4-3.6c-2.4-2.1-4.6-4.5-6.4-7c-0.5-0.7-0.4-1.6,0.3-2.1
		c0.7-0.5,1.6-0.4,2.1,0.3c1.8,2.4,3.8,4.6,6,6.5l4.3,3.6c0.6,0.5,0.7,1.5,0.2,2.1C803,387.4,802.6,387.6,802.2,387.6z"/>
</g>
<g>
	<path class="st19" d="M785,397c-0.3,0-0.7-0.1-1-0.4c-0.6-0.5-0.7-1.5-0.1-2.1l11.5-13.3c0.5-0.6,1.5-0.7,2.1-0.1
		c0.6,0.5,0.7,1.5,0.1,2.1l-11.5,13.3C785.9,396.9,785.4,397,785,397z"/>
</g>
<g>
	<path class="st19" d="M783.2,334.8c-0.1,0-0.3,0-0.4-0.1l-16.5-5.1c-0.8-0.2-1.2-1.1-1-1.9c0.2-0.8,1.1-1.2,1.9-1l16.5,5.1
		c0.8,0.2,1.2,1.1,1,1.9C784.5,334.4,783.9,334.8,783.2,334.8z"/>
</g>
<g>
	<path class="st19" d="M355.9,201.6c-0.5,0-1-0.3-1.3-0.7c-0.4-0.7-0.2-1.6,0.5-2.1l10.4-6v-12c0-0.8,0.7-1.5,1.5-1.5
		s1.5,0.7,1.5,1.5v12.9c0,0.5-0.3,1-0.7,1.3l-11.1,6.5C356.4,201.5,356.2,201.6,355.9,201.6z"/>
</g>
<g>
	<path class="st19" d="M340.8,173.3c-0.4,0-0.7-0.1-1-0.4c-0.6-0.6-0.6-1.5,0-2.1l7.4-7.8c0.6-0.6,1.5-0.6,2.1,0
		c0.6,0.6,0.6,1.5,0,2.1l-7.4,7.8C341.6,173.2,341.2,173.3,340.8,173.3z"/>
</g>
<g>
	<path class="st19" d="M271.6,200.8C271.6,200.8,271.6,200.8,271.6,200.8l-6.2-0.1c-0.8,0-1.5-0.7-1.5-1.5c0-0.8,0.7-1.5,1.5-1.5
		l4.8,0.1c0.1-0.9,0.2-1.9,0.3-2.8c0.1-0.8,0.9-1.4,1.7-1.2c0.8,0.1,1.4,0.9,1.2,1.7c-0.2,1.3-0.3,2.5-0.4,3.8
		C273.1,200.1,272.4,200.8,271.6,200.8z"/>
</g>
<g>
	<path class="st19" d="M271.6,205.4c-0.8,0-1.4-0.6-1.5-1.4c-0.1-1.6-0.1-3.3,0.1-4.9c0.1-0.8,0.8-1.4,1.6-1.4
		c0.8,0.1,1.4,0.8,1.4,1.6c-0.1,1.5-0.1,2.9,0,4.4C273.1,204.7,272.5,205.4,271.6,205.4C271.6,205.4,271.6,205.4,271.6,205.4z"/>
</g>
<g>
	<path class="st19" d="M355.1,225.6c-0.3,0-0.6-0.1-0.9-0.3l-4.4-3.3c-0.7-0.5-0.8-1.4-0.3-2.1c0.5-0.7,1.4-0.8,2.1-0.3l4.4,3.3
		c0.7,0.5,0.8,1.4,0.3,2.1C356,225.4,355.5,225.6,355.1,225.6z"/>
</g>
<g>
	<path class="st19" d="M337.6,240.4c-0.5,0-1-0.3-1.3-0.8l-2-3.7l-2.6,1.1c-0.8,0.3-1.6,0-2-0.8c-0.3-0.8,0-1.6,0.8-2l3.7-1.6
		c0,0,0.1,0,0.1,0l0.1,0c0.7-0.2,1.4,0.1,1.8,0.7l2.6,4.9c0.4,0.7,0.1,1.6-0.6,2C338.1,240.4,337.8,240.4,337.6,240.4z"/>
</g>
<g>
	<path class="st19" d="M334.9,235.6c-0.5,0-1-0.3-1.3-0.8c-0.4-0.7-0.2-1.6,0.6-2l4-2.3c0.7-0.4,1.6-0.1,2,0.6
		c0.4,0.7,0.2,1.6-0.6,2l-4,2.3C335.4,235.5,335.2,235.6,334.9,235.6z"/>
</g>
<g>
	<path class="st19" d="M348.1,225.4c-0.3,0-0.6-0.1-0.9-0.3c-0.7-0.5-0.8-1.4-0.3-2.1c1.5-1.9,3-4.1,4.4-6.4l0.2-0.3
		c0.4-0.7,1.3-1,2-0.6c0.7,0.4,1,1.3,0.6,2l-0.2,0.4c-1.5,2.4-3,4.7-4.6,6.7C349,225.2,348.5,225.4,348.1,225.4z"/>
</g>
<g>
	<path class="st19" d="M313.2,247.8c-0.8,0-1.5-0.7-1.5-1.5v-4.7l-2.8-0.1c-0.8,0-1.5-0.7-1.4-1.6c0-0.8,0.7-1.5,1.6-1.4l3.8,0.1
		l0.4,0c0.8,0,1.5,0.7,1.5,1.5v6.2C314.7,247.2,314.1,247.8,313.2,247.8z"/>
</g>
<g>
	<path class="st19" d="M313.8,241.6h-0.6c-0.8,0-1.5-0.7-1.5-1.5s0.7-1.5,1.5-1.5h0.5l4.4-0.3c0.8-0.1,1.5,0.6,1.6,1.4
		c0.1,0.8-0.6,1.5-1.4,1.6l-4.5,0.3C313.9,241.6,313.9,241.6,313.8,241.6z"/>
</g>
<g>
	<path class="st19" d="M280.1,233.8c-0.4,0-0.7-0.1-1-0.4c-0.6-0.6-0.6-1.5-0.1-2.1l4.5-4.8c0.5-0.6,1.4-0.6,2-0.1l3.4,2.7
		c0.6,0.5,0.8,1.5,0.2,2.1s-1.5,0.8-2.1,0.2l-2.3-1.8l-3.6,3.8C280.9,233.6,280.5,233.8,280.1,233.8z"/>
</g>
<g>
	<path class="st19" d="M284.6,229c-0.4,0-0.8-0.1-1-0.4l-3-2.9c-0.6-0.6-0.6-1.5,0-2.1c0.6-0.6,1.5-0.6,2.1,0l3,2.9
		c0.6,0.6,0.6,1.5,0,2.1C285.4,228.9,285,229,284.6,229z"/>
</g>
<g>
	<path class="st19" d="M634.5,496c-0.3,0-0.5-0.1-0.8-0.2c-1.6-1-3.3-1.9-5.1-2.7c-0.8-0.3-1.1-1.2-0.8-2c0.3-0.8,1.2-1.1,2-0.8
		c1.4,0.6,2.8,1.3,4.1,2.1l6.2-10.8c0.4-0.7,1.3-1,2-0.6c0.7,0.4,1,1.3,0.6,2l-7,12.1c-0.2,0.4-0.5,0.6-0.9,0.7
		C634.8,496,634.6,496,634.5,496z"/>
</g>
<g>
	<path class="st19" d="M638.8,499.1c-0.3,0-0.6-0.1-0.9-0.3l-4.3-3c-0.7-0.5-0.8-1.4-0.3-2.1c0.5-0.7,1.4-0.8,2.1-0.3l4.3,3
		c0.7,0.5,0.8,1.4,0.3,2.1C639.7,498.9,639.2,499.1,638.8,499.1z"/>
</g>
<g>
	<path class="st19" d="M607.8,491.1c-0.8,0-1.4-0.6-1.5-1.4c-0.1-0.8,0.5-1.5,1.4-1.6l6.6-0.5v-12.2c0-0.8,0.7-1.5,1.5-1.5
		s1.5,0.7,1.5,1.5V489c0,0.8-0.7,1.5-1.5,1.5h-1l-6.8,0.5C607.9,491.1,607.8,491.1,607.8,491.1z"/>
</g>
<g>
	<path class="st19" d="M621.1,491c0,0-0.1,0-0.1,0l-5.4-0.5c-0.8-0.1-1.4-0.8-1.4-1.6c0.1-0.8,0.8-1.4,1.6-1.4l5.4,0.5
		c0.8,0.1,1.4,0.8,1.4,1.6C622.5,490.4,621.9,491,621.1,491z"/>
</g>
<g>
	<path class="st19" d="M615.8,580.5c-0.8,0-1.5-0.7-1.5-1.5v-12.1l-6.6-0.6c-0.8-0.1-1.4-0.8-1.4-1.6c0.1-0.8,0.8-1.4,1.6-1.4
		l6.8,0.6l1,0c0.4,0,0.8,0.1,1.1,0.4c0.3,0.3,0.5,0.7,0.5,1.1V579C617.3,579.8,616.6,580.5,615.8,580.5z"/>
</g>
<g>
	<path class="st19" d="M615.8,566.8c-0.8,0-1.4-0.6-1.5-1.4c-0.1-0.8,0.5-1.6,1.4-1.6l4.7-0.4c0.8-0.1,1.6,0.5,1.6,1.4
		c0.1,0.8-0.5,1.6-1.4,1.6l-4.7,0.4C615.9,566.8,615.8,566.8,615.8,566.8z"/>
</g>
<g>
	<path class="st19" d="M641.5,573.4c-0.5,0-1-0.3-1.3-0.8L634,562c-1.6,0.9-3.3,1.7-4.9,2.3c-0.8,0.3-1.6-0.1-1.9-0.8
		c-0.3-0.8,0.1-1.6,0.8-1.9c2-0.8,4-1.8,5.8-2.9c0.3-0.2,0.8-0.3,1.2-0.2c0.4,0.1,0.7,0.4,0.9,0.7l6.9,12c0.4,0.7,0.2,1.6-0.6,2
		C642,573.4,641.7,573.4,641.5,573.4z"/>
</g>
<g>
	<path class="st19" d="M634.6,561.4c-0.5,0-1-0.2-1.2-0.7c-0.5-0.7-0.3-1.6,0.4-2.1l2.5-1.7c0.7-0.5,1.6-0.3,2.1,0.4
		c0.5,0.7,0.3,1.6-0.4,2.1l-2.5,1.7C635.2,561.3,634.9,561.4,634.6,561.4z"/>
</g>
<g>
	<path class="st19" d="M581.3,510c-0.3,0-0.5-0.1-0.8-0.2l-11.6-6.7c-0.7-0.4-1-1.3-0.5-2c0.4-0.7,1.3-1,2-0.5l10.3,6
		c0.7-1.2,1.6-2.4,2.5-3.5c0.5-0.6,1.5-0.7,2.1-0.2c0.6,0.5,0.7,1.5,0.2,2.1c-1.2,1.5-2.2,3-3,4.4c-0.2,0.4-0.5,0.6-0.9,0.7
		C581.5,510,581.4,510,581.3,510z"/>
</g>
<g>
	<path class="st19" d="M579,514.5c-0.2,0-0.4,0-0.6-0.1c-0.8-0.3-1.1-1.2-0.8-2c0.7-1.6,1.4-3.2,2.3-4.7c0.4-0.7,1.3-0.9,2.1-0.5
		c0.7,0.4,1,1.3,0.5,2.1c-0.8,1.4-1.5,2.9-2.2,4.3C580.2,514.2,579.6,514.5,579,514.5z"/>
</g>
<g>
	<path class="st19" d="M577.1,535.5c-0.7,0-1.3-0.5-1.5-1.2c-0.3-1.7-0.5-3.5-0.6-5.3h-11.8c-0.8,0-1.5-0.7-1.5-1.5s0.7-1.5,1.5-1.5
		h13.3c0.8,0,1.5,0.7,1.5,1.5c0,2.2,0.2,4.3,0.6,6.3c0.2,0.8-0.4,1.6-1.2,1.8C577.3,535.5,577.2,535.5,577.1,535.5z"/>
</g>
<g>
	<path class="st19" d="M576.5,529c-0.8,0-1.5-0.7-1.5-1.5v-0.3c0-2.1,0.2-4.2,0.5-6.1c0.1-0.8,0.9-1.4,1.7-1.2
		c0.8,0.1,1.4,0.9,1.2,1.7c-0.3,1.8-0.4,3.7-0.4,5.6v0.3C578,528.3,577.3,529,576.5,529z"/>
</g>
<g>
	<path class="st19" d="M595.7,495.4c-0.5,0-1-0.3-1.3-0.7l-6.8-11.7c-0.4-0.7-0.2-1.6,0.5-2.1s1.6-0.2,2.1,0.5l6.1,10.4
		c0.9-0.5,1.9-0.9,2.9-1.3c0.8-0.3,1.6,0.1,2,0.8c0.3,0.8-0.1,1.6-0.8,2c-1.3,0.5-2.6,1.2-3.9,1.9
		C596.2,495.3,596,495.4,595.7,495.4z"/>
</g>
<g>
	<path class="st0" d="M296.6,2.2c2.6,0.3,4.9,0.8,6.8,1.7l1.6,0.8l1.4,1l1.1,1c2.2,2.2,3.3,5.3,3.3,9.2v91.8
		c0,9.2-6.1,13.9-18.2,13.9H178.3c-5.3,0-9.2-1.6-11.7-4.9c-0.8-1.1-1.5-2.4-2-3.8c-0.5-1.3-0.8-2.8-1-4.4h-0.2v-2v-1.9V61.8
		c0-2.6-0.4-4.9-1.2-6.8c-0.6-1.4-1.4-2.6-2.4-3.7l-0.3-0.3l-0.9-0.8c-3.4-2.7-8.7-4.1-15.8-4.1H53.4c-5.4,0-9.3-1.6-11.7-4.9
		c-0.9-1.1-1.5-2.5-2-4c-0.5-1.2-0.8-2.6-0.9-4.1h-0.2v-3.8l-0.1-6.5v-0.3v-6.1h0.1v-0.1H39v-0.6c0-8.1,4.7-12.6,14.1-13.6l4.1-0.2
		h0.5L296.6,2.2"/>
	<g>
		<path class="st16" d="M165,115.8c-0.7-1.5-1.1-3.3-1.3-5.4h-0.3v-2.1l-0.1-1.9v-4h0.1V63.7c0-2.1-0.3-4.1-0.8-5.8
			c0.8,1.9,1.2,4.2,1.2,6.8v42.8v1.9v2h0.2C164.2,113,164.5,114.5,165,115.8"/>
	</g>
	<g>
		<path class="st16" d="M40.1,38.3c-0.6-1.5-1.1-3.2-1.3-5.1h-0.2v-8.6v-0.7l0-2.9v-4.4h0v-0.1H39v-0.6c0-9.2,6-13.8,18.1-13.8
			h235.3c5.3,0,9.4,0.9,12.4,2.6l0.4,0.3l1,0.6c0.8,0.6,1.4,1.3,2,2.1l-1.1-1l-1.4-1l-1.6-0.8c-2-0.9-4.4-1.4-7.2-1.7L58.1,3.1h-0.5
			l-4.1,0.2c-9.4,1-14.1,5.5-14.1,13.6v0.6H39v0.1h-0.1v6.1v0.3l0.1,6.5v3.8h0.2C39.3,35.7,39.6,37.1,40.1,38.3"/>
	</g>
</g>
<g>
	<path class="st19" d="M590.3,499.3c-0.4,0-0.8-0.2-1.1-0.5c-0.5-0.6-0.5-1.6,0.2-2.1c1.8-1.5,3.7-2.9,5.6-4
		c0.7-0.4,1.6-0.2,2.1,0.5c0.4,0.7,0.2,1.6-0.5,2.1c-1.8,1.1-3.5,2.4-5.2,3.8C591,499.2,590.7,499.3,590.3,499.3z"/>
</g>
<g>
	<path class="st19" d="M570.4,555.2c-0.5,0-1-0.3-1.3-0.7c-0.4-0.7-0.2-1.6,0.5-2.1l10.2-5.9c-0.7-1.2-1.3-2.4-1.8-3.7
		c-0.3-0.8,0-1.6,0.8-2c0.8-0.3,1.6,0,2,0.8c0.7,1.6,1.5,3.1,2.4,4.6c0.2,0.3,0.3,0.8,0.2,1.2c-0.1,0.4-0.4,0.7-0.7,0.9l-11.6,6.7
		C570.9,555.1,570.6,555.2,570.4,555.2z"/>
</g>
<g>
	<path class="st19" d="M585.1,552.9c-0.4,0-0.8-0.2-1.1-0.5c-1.3-1.5-2.4-3-3.3-4.6c-0.4-0.7-0.2-1.6,0.5-2.1
		c0.7-0.4,1.6-0.2,2.1,0.5c0.9,1.5,1.9,2.9,3,4.2c0.5,0.6,0.5,1.6-0.2,2.1C585.8,552.8,585.4,552.9,585.1,552.9z"/>
</g>
<g>
	<path class="st19" d="M590.2,574.3c-0.3,0-0.5-0.1-0.8-0.2c-0.7-0.4-1-1.3-0.5-2l6-10.3c-1.6-0.9-3.1-2-4.6-3.2
		c-0.6-0.5-0.8-1.5-0.2-2.1c0.5-0.6,1.5-0.8,2.1-0.2c1.8,1.4,3.6,2.6,5.5,3.6c0.4,0.2,0.6,0.5,0.7,0.9c0.1,0.4,0.1,0.8-0.1,1.2
		l-6.8,11.7C591.2,574,590.7,574.3,590.2,574.3z"/>
</g>
<g>
	<path class="st19" d="M599.8,564c-0.2,0-0.4,0-0.6-0.1l-2.8-1.4c-0.7-0.4-1.1-1.2-0.7-2c0.4-0.7,1.2-1.1,2-0.7l2.8,1.4
		c0.7,0.4,1.1,1.2,0.7,2C600.9,563.7,600.3,564,599.8,564z"/>
</g>
<g>
	<path class="st19" d="M-49.4,450.6c-0.1,0-0.2,0-0.3-0.1l-4.3-2.5c-0.3-0.2-0.5-0.6-0.3-1c0.2-0.3,0.6-0.5,1-0.3l4.3,2.5
		c0.3,0.2,0.5,0.6,0.3,1C-48.9,450.5-49.1,450.6-49.4,450.6z"/>
</g>
<g>
	<path class="st19" d="M-57.8,463.9c-0.4,0-0.7-0.3-0.7-0.7c0-0.4,0.3-0.7,0.7-0.7l5.1,0c0,0,0,0,0,0c0.4,0,0.7,0.3,0.7,0.7
		c0,0.4-0.3,0.7-0.7,0.7L-57.8,463.9C-57.8,463.9-57.8,463.9-57.8,463.9z"/>
</g>
<g>
	<path class="st19" d="M-53.6,479.6c-0.2,0-0.5-0.1-0.6-0.4c-0.2-0.3-0.1-0.8,0.3-1l4.4-2.5c0.3-0.2,0.8-0.1,1,0.3
		c0.2,0.3,0.1,0.8-0.3,1l-4.4,2.5C-53.3,479.5-53.5,479.6-53.6,479.6z"/>
</g>
<g>
	<path class="st19" d="M-39.7,441c-0.2,0-0.5-0.1-0.6-0.4l-2.5-4.3c-0.2-0.3-0.1-0.8,0.3-1c0.3-0.2,0.8-0.1,1,0.3l2.5,4.3
		c0.2,0.3,0.1,0.8-0.3,1C-39.5,440.9-39.6,441-39.7,441z"/>
</g>
</svg>
