<?xml version="1.0" encoding="UTF-8"?>
<svg xmlns="http://www.w3.org/2000/svg" version="1.1" viewBox="0 0 188.6 276.5">
  <defs>
    <style>
      .cls-1 {
        fill: #067c7e;
        stroke: #000;
        stroke-miterlimit: 10;
        stroke-width: 2px;
      }
    </style>
  </defs>
  <!-- Generator: Adobe Illustrator 28.7.1, SVG Export Plug-In . SVG Version: 1.2.0 Build 142)  -->
  <g>
    <g id="_Слой_1" data-name="Слой_1">
      <path class="cls-1" d="M182.6,168.3s.7,0,2.7,0,2-2,2-2v-19.9c0-2.1-.9-3.2-3.2-3.2h-2.7s-9.6,1.5-9.6-9.6V1.1H1.1v49.9c0,1.7,3.8,2.1,3.8,3.8s0,38.8,0,41.5,8.2,1,8.2,3.3,0,70.1,0,70.1l-2.8,2.8v103.3s155.2,0,160.5,0,8-8,8-8v-96.3c0-3.4,3.7-3.2,3.7-3.2Z"/>
    </g>
  </g>
</svg>