<?xml version="1.0" encoding="UTF-8"?>
<svg xmlns="http://www.w3.org/2000/svg" version="1.1" xmlns:xlink="http://www.w3.org/1999/xlink" viewBox="0 0 43.2 43.1">
  <defs>
    <style>
      .cls-1 {
        fill: url(#_Безымянный_градиент_669);
      }

      .cls-1, .cls-2, .cls-3, .cls-4 {
        fill-rule: evenodd;
      }

      .cls-2 {
        fill: url(#_Безымянный_градиент_667);
      }

      .cls-3 {
        fill: url(#_Безымянный_градиент_666);
      }

      .cls-4 {
        fill: url(#_Безымянный_градиент_668);
      }
    </style>
    <linearGradient id="_Безымянный_градиент_666" data-name="Безымянный градиент 666" x1="-144018.7" y1="-3402.3" x2="-142380.3" y2="-3402.3" gradientTransform="translate(-1481 1182.1) rotate(145) scale(0 0)" gradientUnits="userSpaceOnUse">
      <stop offset="0" stop-color="#262626"/>
      <stop offset=".5" stop-color="#000"/>
      <stop offset="1" stop-color="#262626"/>
    </linearGradient>
    <linearGradient id="_Безымянный_градиент_667" data-name="Безымянный градиент 667" x1="-6942.7" y1="73468.7" x2="-5304.3" y2="73468.7" gradientTransform="translate(-1438.2 1248.6) rotate(54.9) scale(0 0)" gradientUnits="userSpaceOnUse">
      <stop offset="0" stop-color="#000"/>
      <stop offset="0" stop-color="#6f6f6f"/>
      <stop offset=".4" stop-color="#6f6f6f"/>
      <stop offset=".5" stop-color="#000"/>
      <stop offset="1" stop-color="#000"/>
    </linearGradient>
    <radialGradient id="_Безымянный_градиент_668" data-name="Безымянный градиент 668" cx="66825.5" cy="5390.7" fx="66825.5" fy="5390.7" r="819.2" gradientTransform="translate(-1385.9 1185.4) rotate(-35) scale(0 0)" gradientUnits="userSpaceOnUse">
      <stop offset=".6" stop-color="#6f6f6f"/>
      <stop offset=".8" stop-color="#959595"/>
      <stop offset="1" stop-color="#000"/>
    </radialGradient>
    <linearGradient id="_Безымянный_градиент_669" data-name="Безымянный градиент 669" x1="-1229.1" y1="33.8" x2="409.3" y2="33.8" gradientTransform="translate(-1436.9 1192.3) rotate(-125) scale(0)" gradientUnits="userSpaceOnUse">
      <stop offset=".1" stop-color="#d21602"/>
      <stop offset=".8" stop-color="#000"/>
    </linearGradient>
  </defs>
  <!-- Generator: Adobe Illustrator 28.7.1, SVG Export Plug-In . SVG Version: 1.2.0 Build 142)  -->
  <g>
    <g id="_Слой_1" data-name="Слой_1">
      <g id="rst_psrpowertp">
        <g id="sprite181">
          <g id="shape166">
            <path class="cls-3" d="M36.2,37.5l.5-.5c.7-.8,1.4-1.8,2-2.8,2-1.4,2-3.2,0-5.4l-10.8-12.2h0S18.6,3.3,18.6,3.3h0s-1.3-1.9-1.3-1.9C11.7,2.8,7.2,6,4,10.8l1.3,1.8h0s9.3,13.3,9.3,13.3h0s7.7,14.3,7.7,14.3c1.4,2.6,3.1,3.2,5,1.8,1.1-.2,2.1-.4,3-.8l.8-.3c-.9.4-1.9.8-2.9,1.1l-.9.3h-.1c-.9.4-1.6.6-2.4.6-1,0-1.9-.5-2.6-1.5L3.7,14.6c-1.4-2-1.1-3.7.9-5.1.9-1.5,2-2.8,3.2-3.9,1-1,2.2-1.8,3.5-2.4,1.5-.8,3.1-1.3,4.8-1.6,2-1.4,3.7-1.1,5.1.9l18.8,26.8c.7,1,.9,2.1.4,3.1-.2.5-.5,1-1,1.5l-.4.4c-.5.6-.9,1.3-1.4,1.8l-1.3,1.4"/>
            <path class="cls-2" d="M36.2,37.5c-.7.7-1.4,1.4-2.2,1.9s-1.7,1.1-2.7,1.5l-.8.3c-1,.4-2,.6-3,.8-2,1.4-3.6.8-5-1.8l-7.7-14.3h0S5.3,12.6,5.3,12.6h0s-1.3-1.8-1.3-1.8C7.2,6,11.7,2.8,17.3,1.4l1.3,1.8h0s9.4,13.3,9.4,13.3h0s10.8,12.2,10.8,12.2c1.9,2.2,1.9,4,0,5.4-.6,1-1.2,2-2,2.8l-.5.5M27.8,30.5c-.9.6-1.5,1.5-1.7,2.6-.2,1.1,0,2.1.7,3s1.5,1.5,2.6,1.7c1.1.2,2.1,0,3-.7s1.5-1.5,1.7-2.6c.2-1.1,0-2.1-.7-3s-1.5-1.5-2.6-1.7c-1.1-.2-2.1,0-3.1.7"/>
            <path class="cls-4" d="M28.4,42l-1.1.3h.1c0,0,.9-.3.9-.3M25,42.9c-2.3.4-4.7.3-7.2-.1-5.9-1-10.5-4-13.9-8.8S-.7,23.7.4,17.9c.8-4.2,2.5-7.8,5.3-10.8,1.1-1.1,2.3-2.2,3.6-3.1s2.8-1.7,4.2-2.3C17.2,0,21.2-.4,25.4.3c5.9,1,10.5,4,13.9,8.8s4.6,10.2,3.5,16.1c-.5,2.6-1.3,5-2.5,7.1.4-1.1.3-2.1-.4-3.1L21.1,2.4c-1.4-2-3.1-2.3-5.1-.9-1.7.3-3.3.9-4.8,1.6-1.3.7-2.4,1.5-3.5,2.4-1.2,1.1-2.3,2.4-3.2,3.9-2,1.4-2.3,3.1-.9,5.1l18.8,26.8c.7.9,1.6,1.4,2.6,1.5M39.3,33.9c-.5.8-1.1,1.5-1.8,2.2.5-.6,1-1.2,1.4-1.8l.4-.4"/>
            <path class="cls-1" d="M27.8,30.5c.9-.6,1.9-.9,3.1-.7,1.1.2,2,.7,2.6,1.7s.9,1.9.7,3c-.2,1.1-.8,2-1.7,2.6s-1.9.9-3,.7c-1.1-.2-2-.8-2.6-1.7s-.9-1.9-.7-3c.2-1.1.7-2,1.7-2.6"/>
          </g>
        </g>
      </g>
    </g>
  </g>
</svg>