<svg xmlns="http://www.w3.org/2000/svg" width="167" height="225" viewBox="1497 103 167 225"><polygon points="1533,104 1625,104 1663,139 1663,286 1626,326 1532,326 1498,292 1498,139" fill="#26383d" stroke="#3c5b66" stroke-width="2"/><circle cx="1541.789955809121" cy="265.1551999045664" r="3.5" fill="#eeeb9c" stroke="#eeeb9c" stroke-width="1"/><circle cx="1526.488408940272" cy="242.31354097443327" r="3.5" fill="#eeeb9c" stroke="#eeeb9c" stroke-width="1"/><circle cx="1520.1032023454527" cy="214.18642768155428" r="3.5" fill="#eeeb9c" stroke="#eeeb9c" stroke-width="1"/><circle cx="1523.6787501320596" cy="185.37454968055184" r="3.5" fill="#eeeb9c" stroke="#eeeb9c" stroke-width="1"/><circle cx="1536.630207864044" cy="160.59060207345118" r="3.5" fill="#eeeb9c" stroke="#eeeb9c" stroke-width="1"/><circle cx="1556.8391342716113" cy="143.88844030462027" r="3.5" fill="#eeeb9c" stroke="#eeeb9c" stroke-width="1"/><circle cx="1581.0" cy="138.0" r="3.5" fill="#eeeb9c" stroke="#eeeb9c" stroke-width="1"/><circle cx="1605.1608657283887" cy="143.88844030462027" r="3.5" fill="#eeeb9c" stroke="#eeeb9c" stroke-width="1"/><circle cx="1625.369792135956" cy="160.59060207345118" r="3.5" fill="#eeeb9c" stroke="#eeeb9c" stroke-width="1"/><circle cx="1638.3212498679404" cy="185.37454968055184" r="3.5" fill="#eeeb9c" stroke="#eeeb9c" stroke-width="1"/><circle cx="1641.8967976545473" cy="214.18642768155428" r="3.5" fill="#eeeb9c" stroke="#eeeb9c" stroke-width="1"/><circle cx="1635.511591059728" cy="242.3135409744333" r="3.5" fill="#eeeb9c" stroke="#eeeb9c" stroke-width="1"/><circle cx="1620.210044190879" cy="265.1551999045664" r="3.5" fill="#eeeb9c" stroke="#eeeb9c" stroke-width="1"/><polygon points="1581,151 1587,195 1605,231 1586,221 1581,254 1576,221 1558,231 1575,195" fill="#ecec9d" stroke="#ecec9d" stroke-width="1"/><path d="M1581,128 L1581,143" fill="none" stroke="#ecec9d" stroke-width="2"/><text x="1581" y="281" font-family="Arial, sans-serif" font-size="13" fill="#ecec9d" text-anchor="middle">Н</text><rect x="1508" y="296" width="14" height="4" rx="0" fill="#ecec9d" stroke="#ecec9d" stroke-width="1.3"/><rect x="1532" y="296" width="14" height="4" rx="0" fill="#ecec9d" stroke="#ecec9d" stroke-width="1.3"/><rect x="1556" y="296" width="14" height="4" rx="0" fill="#ecec9d" stroke="#ecec9d" stroke-width="1.3"/><rect x="1580" y="296" width="14" height="4" rx="0" fill="#ecec9d" stroke="#ecec9d" stroke-width="1.3"/><rect x="1604" y="296" width="14" height="4" rx="0" fill="#ecec9d" stroke="#ecec9d" stroke-width="1.3"/><rect x="1628" y="296" width="14" height="4" rx="0" fill="#ecec9d" stroke="#ecec9d" stroke-width="1.3"/></svg>