<svg xmlns="http://www.w3.org/2000/svg" width="440" height="314" viewBox="754 948 440 314"><polygon points="759,948 1190,948 1170,1238 1160,1259 1020,1259 1000,1243 1000,1225 911,1225 902,1244 891,1259 787,1259 774,1244" fill="#7ea5b5" stroke="#3c5b66" stroke-width="2"/><rect x="776" y="1121" width="390" height="103" rx="8" fill="#607d83" stroke="#415e65" stroke-width="1.3"/><text x="1090" y="969" font-family="Arial, sans-serif" font-size="10" fill="#dbe4dc" text-anchor="middle">BRAKE    AIR    HYD ACC</text><circle cx="773" cy="967" r="6" fill="#bed0cc" stroke="#5b757c" stroke-width="1"/><path d="M769.7,969.4 L776.3,964.6" fill="none" stroke="#647d81" stroke-width="1.2"/><circle cx="1174" cy="967" r="6" fill="#bed0cc" stroke="#5b757c" stroke-width="1"/><path d="M1170.7,969.4 L1177.3,964.6" fill="none" stroke="#647d81" stroke-width="1.2"/><circle cx="785" cy="1243" r="6" fill="#bed0cc" stroke="#5b757c" stroke-width="1"/><path d="M781.7,1245.4 L788.3,1240.6" fill="none" stroke="#647d81" stroke-width="1.2"/><circle cx="1155" cy="1243" r="6" fill="#bed0cc" stroke="#5b757c" stroke-width="1"/><path d="M1151.7,1245.4 L1158.3,1240.6" fill="none" stroke="#647d81" stroke-width="1.2"/><text x="798" y="1138" font-family="Arial, sans-serif" font-size="8" fill="#dbe4dc" text-anchor="middle">PROBE</text><text x="798" y="1150" font-family="Arial, sans-serif" font-size="8" fill="#dbe4dc" text-anchor="middle">EXTEND</text><text x="798" y="1205" font-family="Arial, sans-serif" font-size="8" fill="#dbe4dc" text-anchor="middle">RETRACT</text><text x="854" y="1138" font-family="Arial, sans-serif" font-size="8" fill="#dbe4dc" text-anchor="middle">RCS REFUEL</text><text x="854" y="1150" font-family="Arial, sans-serif" font-size="8" fill="#dbe4dc" text-anchor="middle">MODE</text><text x="854" y="1205" font-family="Arial, sans-serif" font-size="8" fill="#dbe4dc" text-anchor="middle">RETRACT</text><text x="1009" y="1138" font-family="Arial, sans-serif" font-size="8" fill="#dbe4dc" text-anchor="middle">LIGHTS</text><text x="1009" y="1150" font-family="Arial, sans-serif" font-size="8" fill="#dbe4dc" text-anchor="middle">EXTEND</text><text x="1009" y="1205" font-family="Arial, sans-serif" font-size="8" fill="#dbe4dc" text-anchor="middle">RETRACT</text><text x="1068" y="1138" font-family="Arial, sans-serif" font-size="8" fill="#dbe4dc" text-anchor="middle">EMERG PROBE</text><text x="1068" y="1150" font-family="Arial, sans-serif" font-size="8" fill="#dbe4dc" text-anchor="middle">EXTEND</text><text x="1068" y="1205" font-family="Arial, sans-serif" font-size="8" fill="#dbe4dc" text-anchor="middle">BLOWOUT</text><text x="1125" y="1138" font-family="Arial, sans-serif" font-size="8" fill="#dbe4dc" text-anchor="middle">STOP FUEL</text><text x="1125" y="1150" font-family="Arial, sans-serif" font-size="8" fill="#dbe4dc" text-anchor="middle">EXTEND</text><text x="1125" y="1205" font-family="Arial, sans-serif" font-size="8" fill="#dbe4dc" text-anchor="middle">BLOWOUT</text></svg>